<?xml version="1.0" encoding="UTF-8" standalone="no"?>
<svg
   viewBox="0 0 128 128"
   version="1.1"
   id="svg4"
   sodipodi:docname="erlang-original.svg"
   inkscape:version="1.1.2 (b8e25be833, 2022-02-05)"
   xmlns:inkscape="http://www.inkscape.org/namespaces/inkscape"
   xmlns:sodipodi="http://sodipodi.sourceforge.net/DTD/sodipodi-0.dtd"
   xmlns="http://www.w3.org/2000/svg"
   xmlns:svg="http://www.w3.org/2000/svg">
  <defs
     id="defs8" />
  <sodipodi:namedview
     id="namedview6"
     pagecolor="#ffffff"
     bordercolor="#999999"
     borderopacity="1"
     inkscape:pageshadow="0"
     inkscape:pageopacity="0"
     inkscape:pagecheckerboard="0"
     showgrid="false"
     inkscape:zoom="6.4921875"
     inkscape:cx="80.78941"
     inkscape:cy="74.551143"
     inkscape:window-width="1920"
     inkscape:window-height="1017"
     inkscape:window-x="-8"
     inkscape:window-y="-8"
     inkscape:window-maximized="1"
     inkscape:current-layer="svg4" />
  <rect
     style="fill:#f2f2f2;stroke:#f2f2f2"
     id="rect32"
     width="126"
     height="79.699997"
     x="1"
     y="24.1" />
  <path
     d="M20.7 103.9C11 93.5 5.2 79.2 5.3 62.1 5.2 47 10 34 18.2 24.1H1v79.7l19.7.1zm90.4 0c4.2-4.5 8-9.8 11.4-15.9l-19-9.5c-6.7 10.8-16.4 20.8-29.9 20.9-19.6-.1-27.3-16.9-27.3-38.5h73.3c.1-2.4.1-3.6 0-4.7.5-12.9-2.9-23.7-9.1-32.1H127v79.7l-15.9.1zM47.5 42.4c.8-9.8 8.5-16.3 17.6-16.4 9.1 0 15.7 6.6 15.9 16.4H47.5z"
     fill="#A90533"
     id="path2" />
</svg>
