<?xml version="1.0" encoding="UTF-8" standalone="no"?>
<svg
   viewBox="0 0 128 128"
   version="1.1"
   id="svg8"
   sodipodi:docname="qsharp-original.svg"
   inkscape:version="1.1.2 (b8e25be833, 2022-02-05)"
   xmlns:inkscape="http://www.inkscape.org/namespaces/inkscape"
   xmlns:sodipodi="http://sodipodi.sourceforge.net/DTD/sodipodi-0.dtd"
   xmlns="http://www.w3.org/2000/svg"
   xmlns:svg="http://www.w3.org/2000/svg">
  <defs
     id="defs12" />
  <sodipodi:namedview
     id="namedview10"
     pagecolor="#ffffff"
     bordercolor="#999999"
     borderopacity="1"
     inkscape:pageshadow="0"
     inkscape:pageopacity="0"
     inkscape:pagecheckerboard="0"
     showgrid="false"
     inkscape:zoom="4.5906698"
     inkscape:cx="66.112357"
     inkscape:cy="57.943614"
     inkscape:window-width="1920"
     inkscape:window-height="1017"
     inkscape:window-x="-8"
     inkscape:window-y="-8"
     inkscape:window-maximized="1"
     inkscape:current-layer="svg8" />
  <path
     fill="#9B4F96"
     d="M115.4 30.7L67.1 2.9c-.8-.5-1.9-.7-3.1-.7-1.2 0-2.3.3-3.1.7l-48 27.9c-1.7 1-2.9 3.5-2.9 5.4v55.7c0 1.1.2 2.4 1 3.5l106.8-62c-.6-1.2-1.5-2.1-2.4-2.7z"
     id="path2"
     style="fill:#00ff00" />
  <path
     fill="#68217A"
     d="M10.7 95.3c.5.8 1.2 1.5 1.9 1.9l48.2 27.9c.8.5 1.9.7 3.1.7 1.2 0 2.3-.3 3.1-.7l48-27.9c1.7-1 2.9-3.5 2.9-5.4V36.1c0-.9-.1-1.9-.6-2.8l-106.6 62z"
     id="path4"
     style="fill:#008000" />
  <path
     fill="#ffffff"
     d="m 97,66.2 0.9,-4.3 h -4.2 v -4.7 h 5.1 L 100,51 h 4.9 l -1.2,6.1 h 3.8 l 1.2,-6.1 h 4.8 l -1.2,6.1 h 2.4 v 4.7 h -3.3 l -0.9,4.3 h 4.2 v 4.7 h -5.1 l -1.2,6 h -4.9 l 1.2,-6 h -3.8 l -1.2,6 h -4.8 l 1.2,-6 H 93.7 V 66.1 H 97 Z m 4.8,0 h 3.8 l 0.9,-4.3 h -3.8 z"
     id="path6"
     sodipodi:nodetypes="ccccccccccccccccccccccccccccccccccc" />
  <text
     xml:space="preserve"
     style="font-size:106.667px;line-height:1.25;font-family:'Miriam Libre';-inkscape-font-specification:'Miriam Libre';word-spacing:0px;fill:#ffffff"
     x="20.040649"
     y="89.96508"
     id="text2947"><tspan
       sodipodi:role="line"
       id="tspan2945"
       x="20.040649"
       y="89.96508"
       style="font-style:normal;font-variant:normal;font-weight:normal;font-stretch:normal;font-size:106.667px;font-family:'David Libre';-inkscape-font-specification:'David Libre'">Q</tspan></text>
  <path
     style="fill:#ffffff;stroke:#ffffff;stroke-width:0.217833"
     d="m 95.084164,76.598304 c 0,-0.103334 0.245062,-1.391137 0.544583,-2.861787 0.29952,-1.470651 0.544583,-2.758455 0.544583,-2.861787 0,-0.103333 -0.539138,-0.187877 -1.198083,-0.187877 H 93.777165 V 68.385381 66.08391 l 1.682873,0.04914 1.682872,0.04914 0.376579,-1.832038 C 98.097717,61.5371 98.238667,61.755694 95.84658,61.755694 h -2.069415 v -2.171418 -2.171419 l 2.549895,-0.06137 2.549895,-0.06137 0.390344,-1.960498 c 0.214689,-1.078275 0.495547,-2.475129 0.624129,-3.104123 l 0.233782,-1.143624 h 2.27181 c 1.77225,0 2.2718,0.06526 2.2718,0.296794 0,0.163237 -0.24506,1.500053 -0.54458,2.970703 -0.29952,1.470651 -0.54458,2.709442 -0.54458,2.752871 0,0.04343 0.91404,0.07896 2.0312,0.07896 h 2.03121 l 0.48627,-2.668456 c 0.26745,-1.46765 0.53631,-2.839999 0.59747,-3.049664 0.0968,-0.331791 0.4077,-0.381208 2.39845,-0.381208 2.07611,0 2.27683,0.03519 2.17437,0.381208 -0.17661,0.596458 -1.00565,5.050132 -1.00565,5.402429 0,0.237434 0.297,0.315691 1.19808,0.315691 h 1.19809 v 2.287248 2.287248 h -1.71194 -1.71194 l -0.43441,2.178331 -0.43442,2.178332 h 2.14635 2.14636 v 2.287248 2.287248 h -2.58487 -2.58487 l -0.60284,3.049664 -0.60285,3.049663 h -2.37118 c -2.34806,0 -2.37006,-0.0048 -2.25549,-0.490124 0.0636,-0.269569 0.34647,-1.641917 0.62854,-3.049664 l 0.51284,-2.559539 h -2.01117 -2.01117 l -0.60285,3.049664 -0.602842,3.049663 h -2.258117 c -1.241965,0 -2.258117,-0.08455 -2.258117,-0.187876 z M 106.06362,64.533067 c 0.2089,-0.988418 0.43227,-2.01768 0.49638,-2.287248 0.11458,-0.481824 0.0818,-0.490125 -1.93424,-0.490125 h -2.0508 l -0.37582,1.960502 c -0.2067,1.078276 -0.43225,2.107537 -0.50121,2.287248 -0.10599,0.276214 0.19252,0.326746 1.93024,0.326746 h 2.05562 z"
     id="path21825" />
</svg>
