<?xml version="1.0" encoding="UTF-8" standalone="no"?>
<!-- Created with Inkscape (http://www.inkscape.org/) -->

<svg
   version="1.0"
   width="123.86523"
   height="93.752739"
   id="svg2"
   sodipodi:docname="D_Programming_Language_logo.svg"
   inkscape:version="1.1.2 (b8e25be833, 2022-02-05)"
   xmlns:inkscape="http://www.inkscape.org/namespaces/inkscape"
   xmlns:sodipodi="http://sodipodi.sourceforge.net/DTD/sodipodi-0.dtd"
   xmlns:xlink="http://www.w3.org/1999/xlink"
   xmlns="http://www.w3.org/2000/svg"
   xmlns:svg="http://www.w3.org/2000/svg"
   xmlns:rdf="http://www.w3.org/1999/02/22-rdf-syntax-ns#"
   xmlns:cc="http://creativecommons.org/ns#"
   xmlns:dc="http://purl.org/dc/elements/1.1/">
  <sodipodi:namedview
     id="namedview39"
     pagecolor="#ffffff"
     bordercolor="#999999"
     borderopacity="1"
     inkscape:pageshadow="0"
     inkscape:pageopacity="0"
     inkscape:pagecheckerboard="0"
     showgrid="false"
     inkscape:zoom="6.2676114"
     inkscape:cx="61.028034"
     inkscape:cy="41.164007"
     inkscape:window-width="1920"
     inkscape:window-height="1017"
     inkscape:window-x="-8"
     inkscape:window-y="-8"
     inkscape:window-maximized="1"
     inkscape:current-layer="layer2" />
  <defs
     id="defs4">
    <linearGradient
       id="linearGradient3482">
      <stop
         id="stop3484"
         style="stop-color:#000000;stop-opacity:0.19791667"
         offset="0" />
      <stop
         id="stop3486"
         style="stop-color:#000000;stop-opacity:0.82291669"
         offset="1" />
    </linearGradient>
    <linearGradient
       id="linearGradient3456">
      <stop
         id="stop3458"
         style="stop-color:#ffffff;stop-opacity:1"
         offset="0" />
      <stop
         id="stop3460"
         style="stop-color:#ffffff;stop-opacity:0.33333334"
         offset="1" />
    </linearGradient>
    <linearGradient
       id="linearGradient3420">
      <stop
         id="stop3430"
         style="stop-color:#f2f2f0;stop-opacity:0.13541667"
         offset="0" />
      <stop
         id="stop3424"
         style="stop-color:#eeeeec;stop-opacity:0.39583334"
         offset="1" />
    </linearGradient>
    <linearGradient
       id="linearGradient3360">
      <stop
         id="stop3362"
         style="stop-color:#eeeeec;stop-opacity:1"
         offset="0" />
      <stop
         id="stop3364"
         style="stop-color:#eeeeec;stop-opacity:0"
         offset="1" />
    </linearGradient>
    <linearGradient
       id="linearGradient3307">
      <stop
         id="stop3309"
         style="stop-color:#a5d8ff;stop-opacity:1"
         offset="0" />
      <stop
         id="stop3311"
         style="stop-color:#003845;stop-opacity:1"
         offset="1" />
    </linearGradient>
    <linearGradient
       id="linearGradient3299">
      <stop
         id="stop3301"
         style="stop-color:#ffffff;stop-opacity:1"
         offset="0" />
      <stop
         id="stop3303"
         style="stop-color:#979797;stop-opacity:0.57291669"
         offset="1" />
    </linearGradient>
    <linearGradient
       x1="27.247862"
       y1="33.562527"
       x2="44.49588"
       y2="47.030663"
       id="linearGradient3426"
       xlink:href="#linearGradient3420"
       gradientUnits="userSpaceOnUse"
       gradientTransform="matrix(1.475092,0,0,1.4629417,-34.346986,-43.652594)"
       spreadMethod="reflect" />
    <linearGradient
       x1="24.48222"
       y1="30.993589"
       x2="104.02448"
       y2="90.718597"
       id="linearGradient3462"
       xlink:href="#linearGradient3456"
       gradientUnits="userSpaceOnUse"
       gradientTransform="matrix(1.470947,0,0,1.4584471,-34.080652,-43.378985)" />
    <linearGradient
       x1="49.344894"
       y1="57.756798"
       x2="79.688202"
       y2="83.106018"
       id="linearGradient3488"
       xlink:href="#linearGradient3482"
       gradientUnits="userSpaceOnUse" />
    <linearGradient
       x1="27.247862"
       y1="33.562527"
       x2="44.49588"
       y2="47.030663"
       id="linearGradient2213"
       xlink:href="#linearGradient3420"
       gradientUnits="userSpaceOnUse"
       gradientTransform="matrix(1,0,0,-0.991763,-0.677924,121.0142)"
       spreadMethod="reflect" />
    <linearGradient
       x1="27.247862"
       y1="33.562527"
       x2="44.49588"
       y2="47.030663"
       id="linearGradient2232"
       xlink:href="#linearGradient3420"
       gradientUnits="userSpaceOnUse"
       gradientTransform="matrix(1.475092,0,0,-1.4629417,-34.346986,134.11511)"
       spreadMethod="reflect" />
  </defs>
  <metadata
     id="metadata7">
    <rdf:RDF>
      <cc:Work
         rdf:about="">
        <dc:format>image/svg+xml</dc:format>
        <dc:type
           rdf:resource="http://purl.org/dc/dcmitype/StillImage" />
        <dc:title />
      </cc:Work>
    </rdf:RDF>
  </metadata>
  <g
     inkscape:groupmode="layer"
     id="layer2"
     inkscape:label="Layer 1">
    <g
       transform="translate(-2.9819053,-15.753182)"
       id="layer1">
      <g
         transform="matrix(1.475092,0,0,1.475092,-30.36508,-28.63879)"
         id="g2225"
         style="display:inline">
        <path
           id="rect3466"
           style="fill:#2e3436;fill-opacity:0.27451;fill-rule:nonzero;stroke:none;stroke-width:1.47509"
           transform="matrix(0.67792382,0,0,0.67792382,22.606716,30.094375)"
           d="M 16.349609,5 C 10.061867,5 5,10.620589 5,17.601562 v 63.550782 c 0,3.506743 1.2970272,6.642225 3.3691406,8.916015 h 0.00195 c 0.00139,-1.88e-4 0.00248,1.94e-4 0.00391,0 0.00367,-4.99e-4 0.00585,-0.0014 0.00977,-0.002 0.00328,0.0012 0.00634,0.0015 0.00977,0.002 0.00485,-1.3e-5 0.011119,6.9e-5 0.015625,0 0.00126,-1.45e-4 0.00264,1.85e-4 0.00391,0 0.018262,-0.0027 0.037477,-0.009 0.054687,-0.0039 0.00269,7.99e-4 0.00515,0.0011 0.00781,0.002 0.047432,-0.0029 0.067875,-0.0029 0.1054687,0.02734 0.042731,-0.06146 0.1307326,-0.107712 0.265625,-0.107422 h 0.021484 c 0.015092,3.87e-4 0.019885,0.0014 0.03125,0.002 0.00935,-0.0012 0.02227,-0.0044 0.048828,-0.0059 0.016933,-0.0016 0.042885,-0.0044 0.068359,-0.0059 0.025474,-0.0015 0.050771,-7.25e-4 0.066406,0.0059 0.030308,0.01098 0.057754,0.02514 0.085937,0.04102 0.00103,9.1e-5 0.00303,-7.9e-5 0.00391,0 0.023847,0.006 0.048613,0.01088 0.072266,0.01758 0.00231,6.5e-4 0.0065,0.0028 0.00977,0.0039 l 0.00195,0.002 c -0.00982,0.0034 -0.04124,-0.001 -0.03125,0.002 0.076956,0.02233 0.1327906,0.01655 0.1972656,0.07422 -0.00702,0.0048 -0.029494,0.01087 -0.021484,0.01367 0.022515,0.008 0.048415,0.0027 0.072266,0.0039 0.030101,0.01279 0.059743,0.02627 0.089844,0.03906 0.00133,1.46e-4 0.0027,-1.98e-4 0.00391,0 0.00241,3.46e-4 0.00613,-4.85e-4 0.00781,0 9.083e-4,2.48e-4 0.0028,0.0015 0.00391,0.002 0.00848,5.25e-4 0.016924,0.0013 0.025391,0.002 0.017892,0.0094 0.035027,0.01949 0.052734,0.0293 0.00581,-5.6e-5 0.015086,-5.4e-5 0.019531,0 0.020561,2.49e-4 0.039375,0.01 0.058594,0.01758 0.024977,-2.74e-4 0.079364,-0.002 0.089844,-0.002 0.9455731,0.0063 1.8864491,0.08471 2.8261721,0.1875 0.07805,0.01079 0.156286,0.0225 0.234375,0.0332 0.0287,-0.0036 0.05958,-0.0061 0.09375,-0.0039 0.395584,0.02587 0.787108,0.08924 1.177734,0.154297 0.252141,0.04593 0.507146,0.0681 0.761719,0.09375 -0.249412,-0.09745 -0.686183,-0.232172 -0.400391,-0.603515 0.04955,-0.06438 0.148996,-0.0692 0.222657,-0.103516 0.400514,-0.04719 0.497577,-0.06462 0.964843,-0.07813 0.09586,-0.0028 0.213699,-0.004 0.341797,-0.002 0.384295,0.0061 0.859619,0.0296 1.101563,0.04883 0.51853,0.04121 1.030411,0.150596 1.548828,0.191406 0.314228,0.045 0.677402,0.100777 0.990234,0.128907 0.07524,0.0067 0.151013,0.0038 0.226563,0.0039 0.24271,2.43e-4 0.482238,-0.01178 0.722656,-0.04492 0.03126,-0.0064 0.06244,-0.01337 0.09375,-0.01953 0.05289,-0.0104 0.127716,-0.07038 0.160156,-0.02734 0.206092,0.273417 0.181601,0.358634 0.07227,0.396484 0.0024,0.01616 0.0012,0.03254 0.002,0.04883 0.05861,6.62e-4 0.117258,0.0014 0.175781,0.002 0.08745,-0.01032 0.173964,-0.02224 0.261719,-0.0293 0.02919,-0.0024 0.04174,-0.0019 0.06836,-0.0039 0.05936,-0.04847 0.139378,-0.08156 0.183594,-0.103515 0.311673,-0.122986 0.38756,-0.164862 0.767578,-0.232422 0.13949,-0.0248 0.280486,-0.03006 0.421875,-0.03906 0.240457,-0.01535 0.481778,-0.02946 0.722656,-0.03516 0.475648,-0.0113 1.16706,0.02613 1.601563,0.04297 1.075653,0.09132 2.152173,0.174439 3.228516,0.259766 0.07358,-0.0446 0.159714,-0.09253 0.208984,-0.117188 0.01992,-0.01 0.04195,-0.01517 0.0625,-0.02344 0.0093,-0.02905 0.01606,-0.05752 0.02148,-0.08789 -0.04459,-0.303753 -0.04714,-0.443114 -0.0293,-0.433594 0.02409,0.01285 0.06573,0.2296 0.0293,0.433594 0.0029,0.02004 0.01027,0.05241 0.01367,0.07422 0.13694,-0.0483 0.284471,-0.06409 0.435547,-0.06445 0.975341,-0.217331 1.970487,-0.334338 2.974609,-0.291016 1.716861,0.0043 3.434574,0.04306 5.150391,-0.02148 0.05349,-0.0017 0.820289,-0.04228 0.917969,0.0059 0.09237,0.04484 0.179234,0.09967 0.263672,0.158203 0.01637,0.0012 0.03242,-3.13e-4 0.04883,0.002 0.0025,0.01347 0.0087,0.02744 0.01172,0.04102 0.06418,0.04633 0.127756,0.09328 0.191407,0.140625 0.07791,0.02967 0.1567,0.05882 0.222656,0.07422 0.01832,0.0043 0.03902,0.02502 0.05859,0.04883 0.106101,0.01041 0.211183,0.02927 0.316406,0.04687 0.118272,7.61e-4 -0.01425,4.78e-4 0.251953,0 0.306864,-6e-4 0.615162,-0.01484 0.921875,-0.0059 1.029785,0.03246 2.042597,0.152617 3.064453,0.271485 0.03382,0.0042 0.06779,0.0089 0.101563,0.01367 0.212276,0.0075 0.424344,0.01881 0.636719,0.02344 0.470014,-2.47e-4 0.94014,0.0017 1.410156,0.002 0.0059,-2.15e-4 0.01172,2.14e-4 0.01758,0 1.268642,-0.04627 2.538591,-0.05136 3.808594,-0.04102 0.0033,2.6e-5 0.0065,-2.7e-5 0.0098,0 0.03567,-0.007 0.06778,-0.0094 0.0918,0 0.002,1.7e-5 0.0039,-1.8e-5 0.0059,0 0.10116,-0.02414 0.204743,-0.04953 0.240234,0.002 0.730559,0.0075 1.460999,0.01909 2.191406,0.0293 -0.08169,-0.119748 -0.156388,-0.244945 -0.240234,-0.363282 0.109613,-0.0684 0.20774,-0.158158 0.328125,-0.205078 0.03486,-0.01359 0.07333,-0.01641 0.111328,-0.01563 0.038,8.05e-4 0.07586,0.0039 0.113281,0.0039 0.126832,5.8e-5 0.25416,0.0055 0.38086,0.01172 0.746191,0.03623 1.488446,0.10865 2.226562,0.226563 0.544436,0.107861 1.088761,0.20842 1.636719,0.289062 0.108837,-0.0088 0.217372,-0.0182 0.326172,-0.02734 0.601097,2.48e-4 1.200004,0.0098 1.800781,0.02734 0.220365,0.0064 0.441688,0.0135 0.662109,0.01758 0.04872,-0.01755 0.09355,-0.02993 0.136719,-0.04102 0.08785,-0.219668 1.0529,-0.226774 1.123047,-0.234375 1.674483,-9e-5 3.350893,-0.0054 5.025391,0 0.474418,0.0056 0.948602,0.02872 1.419921,-0.03516 0.0068,0.0065 0.01632,0.01124 0.02344,0.01758 0.01605,-8.85e-4 0.02585,0.007 0.02734,0.02344 0.01753,0.01444 0.03805,0.02721 0.05664,0.04102 0.262028,-0.03176 0.526307,-0.03624 0.791016,-0.01563 0.184225,0.01693 0.368546,0.03157 0.552734,0.04883 0.792925,-6.6e-5 1.585967,2.37e-4 2.378907,0 -0.0014,-0.05766 -0.001,-0.116139 0.002,-0.173828 -0.024,-0.123351 -0.04013,-0.246532 -0.04102,-0.371094 -2.47e-4,-0.0346 0.04787,-0.02366 0.09375,-0.01563 0.02042,-0.02365 0.08592,0.0037 0.125,0.002 0.02141,-0.0013 0.05537,-0.0023 0.08203,-0.0039 0.236298,-0.01405 0.619206,-0.03887 0.726563,-0.04102 0.199712,-0.0039 0.397933,-0.0062 0.597656,-0.0059 1.39806,0.0024 2.796299,0.104315 4.1875,0.232422 0.516164,0.06105 1.034447,0.108993 1.548828,0.183593 0.27055,0.03924 0.536256,0.106424 0.804688,0.158204 0.47513,0.09164 0.952714,0.18476 1.43164,0.265625 0.06712,0.0012 0.134134,0.0025 0.201172,0.0039 0.0066,-8.39e-4 0.01291,-0.0031 0.01953,-0.0039 0.223468,-0.02649 0.429444,-0.06489 0.607422,-0.05273 0.05877,0.004 0.102058,0.04434 0.154297,0.0625 0.02474,-1.24e-4 0.04947,4.6e-5 0.07422,0 0.611027,-0.03885 1.221332,-0.07701 1.830078,-0.142578 0.09053,-0.01772 0.240687,-0.04457 0.386719,-0.07227 -0.04132,-0.139239 -0.06513,-0.281481 -0.05664,-0.423828 0.0013,-0.02128 0.01173,-0.0328 0.0293,-0.03711 0.0475,-0.01164 0.138319,0.02093 0.203125,0.02734 0.02916,-0.01991 0.07909,-0.0059 0.126953,0.0039 0.44525,-0.0035 0.890771,0.0015 1.335938,0.0039 0.0039,2.1e-5 0.0078,-2.1e-5 0.01172,0 1.697541,-0.0077 3.394772,-0.0043 5.091797,0.04102 0.21839,0.0058 0.435986,0.01272 0.654297,0.02148 0.791123,-0.04255 1.58454,-0.07156 2.376953,-0.05859 0.122465,-0.0089 0.202606,-0.01787 0.263672,-0.01172 0.0208,-8.9e-5 0.04853,2.23e-4 0.0332,0 -0.0072,-1.08e-4 -0.0143,0.0019 -0.02148,0.002 0.08455,0.01289 0.124964,0.07108 0.164062,0.240234 1.14137,-0.01671 2.282278,-0.01048 3.423829,0.0098 0.150721,-0.0072 0.300258,-0.0196 0.451171,-0.02344 0.895259,5e-5 1.278192,-0.0048 2.257808,0.01953 1.15367,0.02862 2.30818,0.10686 3.46289,0.08008 0.0453,1.3e-4 0.0817,-1.15e-4 0.1211,0 0.11197,-9.18e-4 0.22395,-0.0041 0.33593,-0.0039 0.0195,3.16e-4 0.0252,0.0019 0.043,0.002 0.0357,-0.0073 0.0769,-0.02276 0.0879,0.002 0.13093,0.0011 0.21034,0.0097 0.21485,0.08398 0.46295,7.43e-4 0.9258,0.0016 1.38867,0.002 0.11862,-0.02231 0.26054,-0.03883 1.0293,-0.169922 0.62728,2.8e-5 1.25551,0.0047 1.88281,0.0078 0.17364,-0.01816 0.33964,-0.02553 0.68555,-0.04883 0.37482,-0.01382 0.74984,-0.03412 1.125,-0.04102 0.30585,-0.0056 0.61201,-0.0047 0.91796,-0.002 0.14116,-0.148632 0.29951,-0.270718 0.47071,-0.376953 -0.0254,-0.09764 0.13876,-0.362872 0.16601,-0.396484 0.0755,-0.09312 0.17076,-0.169447 0.25586,-0.253907 0.31306,-0.197009 0.38007,-0.244872 0.76172,-0.439453 1.18357,-0.603426 -0.4799,0.298671 0.95508,-0.458984 0.1085,-0.05728 0.20698,-0.13605 0.31836,-0.1875 0.17042,-0.07872 0.35024,-0.133632 0.52539,-0.201172 0.2114,-0.0066 0.30734,-0.01496 0.45898,0.0332 0.13033,-0.06456 0.25434,-0.124735 0.39844,-0.197266 0.0938,-0.04722 0.14272,-0.07373 0.21094,-0.109375 0.17099,-0.210175 0.35093,-0.413836 0.54101,-0.609375 0.15889,-0.14817 0.31609,-0.300729 0.48243,-0.4375 0.029,-0.05186 0.055,-0.105317 0.0859,-0.15625 0.4007,-0.670503 0.15441,-0.274656 0.52539,-0.839843 0.0736,-0.112118 0.16315,-0.213896 0.21875,-0.335938 0.21926,-0.481189 -0.23268,-0.06108 0.29493,-0.658203 0.0535,-0.06054 0.14189,-0.07858 0.21289,-0.117187 0.10676,0.02189 0.2128,0.04672 0.32031,0.06641 0.0207,-0.0357 0.0382,-0.06795 0.0625,-0.109375 0.0689,-0.117441 0.13849,-0.233094 0.20898,-0.34961 0.0393,-0.178858 0.0986,-0.355522 0.14453,-0.521484 0.13677,-0.268039 0.27622,-0.5338 0.41797,-0.798828 0.008,-0.02539 0.0145,-0.05104 0.0234,-0.07617 0.13539,-0.383135 0.50803,-1.075142 0.65625,-1.367187 0.0107,-0.01762 0.15519,-0.254423 0.25586,-0.419922 -0.005,-0.0339 0.003,-0.07756 0.002,-0.111328 -0.007,-0.190085 0.0163,-0.369852 0.0488,-0.548829 -0.001,-0.06203 -0.002,-0.123546 0,-0.185547 0.006,-0.163268 0.0203,-0.325591 0.0352,-0.488281 0.009,-0.102725 0.0189,-0.207436 0.0391,-0.308593 0.0597,-0.298724 0.0995,-0.392787 0.18945,-0.652344 0.0323,-0.114226 0.0526,-0.178803 0.0703,-0.242188 -0.01,-0.449455 7.5e-4,-0.897946 0.10156,-1.339844 3.3e-4,-0.0018 0.002,-0.004 0.002,-0.0059 -0.0303,-0.04353 7.1e-4,-0.109396 0,-0.164062 -0.006,-0.45501 -0.0222,-0.910281 -0.0293,-1.365235 -0.0209,-0.01119 -0.0434,-0.02304 -0.0664,-0.03906 -0.061,-0.04242 -0.0801,-0.127529 -0.0996,-0.199219 -0.0583,-0.213908 -0.0385,-0.727496 -0.0391,-0.876953 0.0341,-0.298708 0.0569,-0.508816 0.0859,-0.728516 -0.0198,-0.609408 -0.0354,-1.218317 -0.0117,-1.828125 0.0521,-0.936478 0.0736,-1.451415 0.18165,-2.417969 -0.0281,-0.01227 -0.0567,-0.02517 -0.0801,-0.03711 -0.0369,-0.01885 -0.0585,-0.215509 -0.0605,-0.224609 0,-0.02535 -0.002,-0.05082 -0.002,-0.07617 -0.0125,-0.0191 -0.007,-0.06208 0,-0.113281 -0.005,-0.449182 -0.0261,-0.899075 0.004,-1.347657 0.015,-0.06579 0.0219,-0.09829 0.0332,-0.115234 -4.6e-4,-0.0067 -10e-4,-0.01424 0,-0.01953 V 66.97115 c -2e-5,-0.306314 -10e-6,-0.613608 0,-0.919922 0,-0.09133 -10e-6,-0.182107 0,-0.273437 1e-5,-0.02406 -0.0226,-0.06397 0,-0.07227 h 0.002 c 3e-5,-0.02475 -3e-5,-0.04947 0,-0.07422 0.022,0.0042 0.0442,0.0065 0.0664,0.0098 -0.006,-0.0632 -0.013,-0.116092 -0.0176,-0.212891 -0.0108,-0.225429 0.01,-0.614133 0.0352,-0.820312 -0.003,-1.11e-4 -0.005,9.3e-5 -0.008,0 l 0.002,-0.002 c 5.1e-4,-0.0065 -5.5e-4,-0.01301 0,-0.01953 -0.0498,0.0016 -0.0992,7.87e-4 -0.14844,-0.0059 -1e-4,-1.3e-5 1.1e-4,-0.0054 0,-0.0059 h -0.002 c -0.005,6.3e-4 1.2e-4,-0.0099 0,-0.01563 -6.6e-4,-0.0071 -7e-4,-0.01435 -0.002,-0.02148 -0.003,-0.0328 -0.006,-0.06919 -0.006,-0.07813 -6e-5,-0.0037 5e-5,-0.008 0,-0.01172 -0.0252,-0.296643 -0.0437,-0.594443 -0.0273,-0.892578 0.006,-0.112222 0.0236,-0.222421 0.0371,-0.333985 0.0163,-0.133993 0.035,-0.268536 0.0527,-0.402344 1.9e-4,-0.0029 -1.9e-4,-0.0069 0,-0.0098 0.005,-0.07158 0.0118,-0.139354 0.0195,-0.240235 0.001,-0.01433 7.3e-4,-0.02864 0.002,-0.04297 -2.9e-4,-0.01819 -0.002,-0.03649 -0.002,-0.05469 -0.001,2e-6 -0.003,2e-6 -0.004,0 -0.009,-2e-5 -2.3e-4,-0.01844 0,-0.02734 3.4e-4,-0.01302 7e-4,-0.02605 0.002,-0.03906 -0.0123,-0.19622 -0.041,-0.392613 -0.0644,-0.587891 -0.007,-0.05627 -0.0155,-0.111409 -0.0195,-0.167968 -0.005,-0.08726 -0.004,-0.176272 -0.006,-0.263672 0.002,-0.05627 0.002,-0.111699 0.004,-0.167969 0.003,-0.07884 0.005,-0.157498 0.008,-0.236328 0.002,-0.05244 -9.8e-4,-0.106063 0.006,-0.158203 0.0313,-0.283659 0.0385,-0.232199 0.084,-0.472657 0.006,-0.03251 0.0118,-0.06507 0.0176,-0.09766 0.006,-0.03322 0.0119,-0.06636 0.0176,-0.09961 0.005,-0.0384 0.0112,-0.07679 0.0156,-0.115235 -0.20978,0.0121 -0.25467,0.02099 -0.25781,-0.06641 7e-5,-0.0013 -8e-5,-0.0026 0,-0.0039 h -0.002 c -3.2e-4,-0.02028 -7.6e-4,-0.03578 0,-0.06836 0.002,-0.0176 0.004,-0.03513 0.006,-0.05273 1.1e-4,-0.01927 -2.2e-4,-0.03932 0,-0.05859 -0.006,-0.205552 -0.0233,-0.409851 -0.0293,-0.615234 -0.0142,-0.478013 0.01,-0.9557 0.0566,-1.431641 0.0185,-0.13215 0.0326,-0.262943 0.0547,-0.394531 0.0214,-0.127548 0.028,-0.287705 0.0683,-0.414062 -0.006,-1.47e-4 -0.0118,3.21e-4 -0.0176,0 -0.057,-0.0031 -0.0393,-0.227469 -0.0293,-0.261719 0.004,-0.02793 0.007,-0.05604 0.0117,-0.08398 -5e-5,-0.02593 1.8e-4,-0.05219 0,-0.07813 -0.001,-0.04603 2.7e-4,-0.09247 0,-0.138671 -0.0319,-0.0069 -0.063,-0.01586 -0.0937,-0.02539 -0.0252,-0.0079 -7e-4,-0.05322 -0.002,-0.08008 0.003,-0.04527 0.005,-0.09166 0.01,-0.136719 0.001,-0.0112 0.004,-0.02209 0.006,-0.0332 -4e-4,-0.242738 0.009,-0.485722 0.0195,-0.728516 0.0167,-0.281595 0.0373,-0.561394 0.0684,-0.841796 0.0158,-0.142545 0.042,-0.280783 0.043,-0.423829 -0.002,-0.01632 -0.004,-0.03251 -0.006,-0.04883 0.007,-0.0021 0.0144,-0.0038 0.0215,-0.0059 -0.006,-0.02046 -0.0177,-0.04303 -0.002,-0.05078 0.037,-0.01817 0.0332,-0.01774 0.0625,-0.0332 0.006,-0.0087 0.0139,-0.01653 0.0234,-0.02539 0.004,-0.194756 0.008,-0.389165 0.01,-0.583985 -0.005,-3.08e-4 -0.007,-0.0017 -0.0117,-0.002 -0.0154,-8.5e-4 -0.002,-0.03178 -0.002,-0.04687 0,-0.02514 0.002,-0.04329 0.002,-0.06445 -3.4e-4,-0.01042 3e-4,-0.02083 0,-0.03125 -0.005,-0.16739 -0.003,-0.334769 0,-0.501953 -0.005,-0.09201 -0.008,-0.183464 -0.0156,-0.27539 -0.004,-0.127067 -0.009,-0.253797 -0.0137,-0.38086 -0.0543,-0.193723 -0.0439,-0.189991 -0.0449,-0.36914 -0.005,-0.381959 -0.0141,-0.764272 -0.0117,-1.146485 -4.5e-4,-0.0071 -0.003,-0.01439 -0.002,-0.02148 2.2e-4,-0.0021 0.002,-0.01072 0.002,-0.01367 0.003,-0.317086 0.0132,-0.633117 0.043,-0.949219 0.005,-0.130406 0.0164,-0.26208 0.0156,-0.392578 -4e-4,-0.07576 -0.0125,-0.151092 -0.0195,-0.226562 -0.007,-0.08369 -0.0284,-0.166151 -0.0234,-0.25 0.006,-0.09209 -0.0211,-0.221725 0.0566,-0.271485 0.005,-0.0033 0.009,-0.0048 0.0137,-0.0078 3e-5,-0.03246 -4.3e-4,-0.06519 0,-0.09766 -2.2e-4,-0.04036 4.8e-4,-0.08073 0,-0.121093 -0.0124,-0.0019 -0.0247,-0.0042 -0.0371,-0.0059 0.0133,-0.567686 -8e-5,-1.135593 -0.0137,-1.703125 -0.003,-0.3339 -0.006,-0.511745 0.0117,-0.822265 0.006,-0.100665 0.009,-0.194449 0.0176,-0.28711 -0.0553,-0.0433 -0.10902,-0.09263 -0.16601,-0.132812 0.0253,-0.04417 0.0204,-0.170781 0.0234,-0.207031 0.0187,-0.204635 0.0586,-0.403461 0.11133,-0.601563 -0.004,-0.10125 -0.005,-0.201632 0,-0.302734 0.004,-0.04556 0.008,-0.09279 0.0117,-0.138672 -10e-5,-0.0013 1e-4,-0.0026 0,-0.0039 -0.043,-0.533106 -0.074,-1.066869 -0.0371,-1.601562 0.0179,-0.131512 0.0161,-0.112509 0.0215,-0.152344 -0.005,3.73e-4 -0.009,-4.16e-4 -0.0137,0 -6e-5,-0.0085 8e-5,-0.01694 0,-0.02539 -0.017,-0.0032 -0.004,-0.03561 -0.002,-0.05273 1.3e-4,-0.0013 -1.4e-4,-0.0026 0,-0.0039 -10e-4,-0.08521 -0.004,-0.170639 -0.006,-0.255859 -0.19457,0.09172 -0.18379,0.05727 -0.19336,-0.08008 -0.008,-0.107737 -0.009,-0.116678 -0.0195,-0.226563 -3e-5,-0.06514 -0.005,-0.130219 -0.002,-0.195313 0.006,-0.131835 0.031,-0.260803 0.0586,-0.388671 -3e-5,-0.0041 7e-5,-0.0096 0,-0.01367 0,-0.243426 -1e-5,-0.487043 0,-0.730469 10e-6,-0.161416 4e-5,-0.322959 0,-0.484375 -7e-5,-0.02639 4.2e-4,-0.04198 0.002,-0.05469 0.004,-0.0396 0.0267,-0.02449 0.11914,-0.0098 2e-4,-0.07221 -5.5e-4,-0.144579 0,-0.216797 4.2e-4,-0.0039 0.002,-0.0078 0.002,-0.01172 -3e-5,-0.002 2e-5,-0.0039 0,-0.0059 -10e-4,-0.08417 -0.004,-0.16779 -0.006,-0.251953 -0.0232,-0.506503 -0.017,-1.004187 0.0781,-1.5 -0.0146,-0.0036 -0.0252,-0.01149 -0.0293,-0.02344 -0.002,1.08e-4 -0.002,-1.12e-4 -0.004,0 -0.002,2e-4 5e-5,-0.0052 0,-0.0078 0,-0.03363 -7.9e-4,-0.06793 -0.002,-0.101563 l -0.006,-0.205078 c -0.003,-0.07109 -0.005,-0.141797 -0.008,-0.212891 6e-5,-0.123384 -0.003,-0.247713 -0.002,-0.371093 0.005,-0.415135 0.0375,-0.828097 0.0859,-1.240235 -0.005,-0.422865 0.0137,-0.845357 0.0371,-1.267578 -10e-4,-0.01922 -0.003,-0.04022 -0.004,-0.05859 -3.6e-4,-0.0058 3.6e-4,-0.01173 0,-0.01758 -0.0128,-0.02113 -0.0234,-0.03843 -0.0469,-0.07617 -0.0898,-0.4018 -0.11987,-0.813017 -0.10547,-1.224609 0.009,-0.261296 0.0708,-0.616189 0.11328,-0.876953 -5e-5,-0.116488 0.002,-0.233174 0.004,-0.349609 -0.0297,-0.0075 -0.0598,-0.01561 -0.0977,-0.02344 -0.011,-0.0023 -0.005,-0.02211 -0.006,-0.0332 -0.008,-0.06545 -0.009,-0.131936 -0.0176,-0.197266 -0.0119,-0.0835 -0.0288,-0.164897 -0.043,-0.248046 -0.0242,-0.09504 -0.0537,-0.188877 -0.0723,-0.285157 -0.0348,-0.179973 -0.067,-0.360842 -0.0879,-0.542969 -0.0363,-0.316829 -0.0528,-1.058066 -0.0488,-1.314453 0.001,-0.06955 0.008,-0.196826 0.0195,-0.339843 -0.11059,0.03738 -0.23515,0.02836 -0.35156,0.04492 -0.0145,-0.04327 -0.037,-0.08368 -0.043,-0.128907 -0.0179,-0.132966 0.0135,-0.238841 0.043,-0.367187 0.0702,-0.304876 0.15419,-0.605557 0.23242,-0.908203 0.0683,-0.28616 0.12941,-0.574742 0.19531,-0.861329 0.0201,-0.09764 0.0386,-0.190592 0.0605,-0.308593 0.007,-0.04035 0.0133,-0.08053 0.0195,-0.121094 0.002,-0.276096 0.01,-0.552304 0.0234,-0.828125 0.004,-0.167621 0.01,-0.334291 0.0117,-0.501953 0.003,-0.268486 -0.0206,-0.537191 0.0312,-0.802735 0.0332,-0.170045 0.0108,-0.120169 0.043,-0.193359 0.005,-0.0069 0.004,-0.0047 0.008,-0.0098 -0.003,-0.02195 -0.007,-0.04428 -0.008,-0.06641 -9.1e-4,-0.02598 -0.015,-0.07287 0.004,-0.08203 -0.003,-0.01704 -0.002,-0.03114 0.0117,-0.03711 0.006,-0.0026 0.01,-0.0034 0.0156,-0.0059 0.002,-0.0063 0.014,-0.0036 0.0176,-0.0078 0.003,-0.01515 0.006,-0.03096 0.006,-0.04492 -0.005,-0.03815 -0.01,-0.07578 -0.0137,-0.115235 -0.001,-0.01252 -7.3e-4,-0.01223 -0.002,-0.02344 -0.0197,-0.0059 -0.0392,-0.01086 -0.0586,-0.01758 -0.0101,-0.0034 4e-5,-0.02076 0,-0.03125 -9e-5,-0.02922 -0.002,-0.05867 -0.002,-0.08789 -6.6e-4,-0.237574 -6.9e-4,-0.475315 0,-0.71289 0.003,-0.481648 0.0125,-0.963897 -0.008,-1.445313 -0.007,-0.14502 -0.0169,-0.200839 0.16406,-0.255859 -4.6e-4,-0.03516 4.7e-4,-0.07031 0,-0.105469 -0.0524,-0.01276 -0.11298,-0.0317 -0.19531,-0.06641 -0.0259,-0.0109 -0.0168,-0.04912 0.002,-0.0918 0.002,-0.03162 0.007,-0.06353 0.008,-0.13086 -0.001,-0.455211 -0.0136,-0.910137 -0.0254,-1.365234 -0.013,-0.482406 -0.0272,-0.741725 -0.01,-1.253906 0.005,-0.152949 0.0248,-0.304482 0.0371,-0.457031 0.0178,-0.152959 0.0202,-0.188228 0.0273,-0.263672 0.007,-0.166382 0.0192,-0.332389 0.0352,-0.498047 -0.0212,-0.02507 -0.0235,-0.08115 -0.0352,-0.115234 -0.009,-0.02544 -0.007,-0.05322 -0.008,-0.08008 -0.002,-0.0572 -0.002,-0.114635 -0.002,-0.171875 3.8e-4,-0.04347 0.005,-0.112945 0.008,-0.1875 -0.004,-0.2229 -0.0103,-0.445275 -0.0215,-0.667968 -0.0182,-5.23e-4 -0.0366,-0.0024 -0.0547,-0.002 -9.2e-4,-0.0202 -9.2e-4,-0.04035 -0.002,-0.06055 -0.003,-0.0064 -0.003,-0.01618 0,-0.02734 -0.0105,-0.287328 -0.0113,-0.575966 0.002,-0.863281 0.002,-0.03587 0.005,-0.07162 0.008,-0.107422 -0.0166,-0.215189 -0.0298,-0.429566 -0.0371,-0.646485 -0.0113,-0.33176 -0.0166,-0.5968 0.0137,-0.9375 0.0101,-0.114235 0.0394,-0.226782 0.0586,-0.339843 0.0112,-0.05942 0.0494,-0.250395 0.084,-0.40625 -0.0116,-0.02813 -0.0211,-0.05793 -0.0332,-0.08594 -0.0284,-0.08744 -0.0624,-0.174792 -0.0859,-0.263672 -0.0196,-0.07425 -0.0332,-0.148699 -0.0449,-0.224609 -0.0289,-0.18835 -0.0419,-0.297512 -0.0488,-0.427734 -0.01,-0.04586 -0.0204,-0.09298 -0.0254,-0.125 -0.042,-0.113042 -0.0785,-0.227186 -0.10742,-0.34375 -0.0486,-0.0024 -0.0974,-0.0067 -0.14258,-0.02344 -0.0399,-0.01479 -0.0562,-0.06317 -0.0781,-0.09961 -0.0883,-0.146754 -0.12116,-0.237236 -0.16406,-0.4023441 -0.0853,-0.3283733 -0.0691,-0.2730368 -0.0977,-0.5625 -0.0204,-0.3194168 -0.0246,-0.2591126 -0.0176,-0.5136719 8.7e-4,-0.033988 0.003,-0.067579 0.004,-0.1015625 -0.0292,-0.049929 -0.0505,-0.099898 -0.0801,-0.2050781 -0.0149,-0.052963 -0.0155,-0.1093255 -0.0215,-0.1640625 -0.0131,-0.1325157 -0.0197,-0.2641621 -0.0234,-0.3964844 C 117.85219,6.133594 115.3155,5 112.51562,5 Z m 77.460938,85.138672 c -0.004,-6.08e-4 -0.0075,-0.0015 -0.01172,-0.002 -0.02105,9e-5 -0.03499,0.0017 -0.05859,0.0078 0.02343,-0.002 0.04682,-0.0055 0.07031,-0.0059 z m -54.830078,0.294922 c -0.0013,-1.26e-4 -0.0026,1.23e-4 -0.0039,0 -0.03566,-0.0034 -0.07169,-0.0031 -0.107421,-0.0059 0.02696,0.01824 0.0544,0.03561 0.08203,0.05273 0.0064,1.36e-4 0.05427,-1.86e-4 0.0625,0 -0.0089,-0.01601 -0.01974,-0.03051 -0.0332,-0.04687 z m -0.111328,-0.0059 c -0.05675,-0.0384 -0.114766,-0.07616 -0.169922,-0.117187 -0.05748,-0.02189 -0.112667,-0.04015 -0.171875,-0.0625 0.01526,0.05472 0.03231,0.110248 0.05273,0.166015 0.09637,0.0029 0.192953,0.0062 0.289063,0.01367 z m -10.164063,-0.08789 c -0.0118,0.0042 -0.02354,0.009 -0.03516,0.01367 -0.0034,0.01074 -0.0077,0.02082 -0.01172,0.03125 0.01744,-0.0045 0.03528,-0.0073 0.05273,-0.01172 -0.0016,-0.01011 -0.0043,-0.02346 -0.0059,-0.0332 z M 9.5800781,90.181641 c -0.00394,-2.45e-4 -0.00778,-0.0017 -0.011719,-0.002 0.014499,0.0062 0.02847,0.01337 0.042969,0.01953 0.011441,0.0044 -0.016907,-0.0123 -0.03125,-0.01758 z M 9.2265625,90.048828 c -0.00125,-6.92e-4 -0.00292,-0.0016 -0.00391,-0.002 -0.0051,-0.0018 -0.010377,-0.0026 -0.015625,-0.0039 0.011876,0.0064 0.022921,0.01387 0.035156,0.01953 0.00707,0.0033 -0.0063,-0.0085 -0.015625,-0.01367 z M 121.47461,20.179688 c -1e-5,0.0013 1e-5,0.0026 0,0.0039 -3e-4,0.06817 9e-4,0.07774 0.002,0.125 0.005,-0.03981 0.0103,-0.07945 0.0156,-0.119141 -0.006,-0.0023 -0.0119,-0.0063 -0.0176,-0.0098 z M 120.75977,21 c 0.008,0.0095 0.0136,0.02349 0.0195,0.03711 -2.9e-4,-0.0013 2.9e-4,-0.0027 0,-0.0039 -0.003,-0.01251 -0.0285,-0.0429 -0.0195,-0.0332 z m -0.26563,7.560547 c 0.001,0.01434 7.3e-4,0.02764 0.004,0.04687 0.002,0.01534 2.1e-4,-0.0314 0,-0.04687 -0.001,-1.37e-4 -0.003,1.36e-4 -0.004,0 z m 1.32227,5.765625 v 0.0293 c 4.3e-4,-0.0098 8.5e-4,-0.01959 0.002,-0.0293 z m 1.13281,3.511719 c -0.005,0.0267 -0.0101,0.05339 -0.0156,0.08008 -0.002,0.01036 -0.004,0.02089 -0.006,0.03125 0.009,-0.0091 0.0141,-0.02397 0.0234,-0.03125 -0.002,-0.02661 2.5e-4,-0.05347 -0.002,-0.08008 z m -0.84766,41.835937 c -0.0188,0.02765 -0.0365,0.05597 -0.0547,0.08398 -0.002,0.0094 -0.004,0.01628 -0.006,0.02539 0.0203,-0.03633 0.0402,-0.07306 0.0605,-0.109375 z M 15.703125,90.306641 c -0.272107,0.0081 -0.42425,0.0203 -0.580078,0.03711 0.05954,0.02404 0.119928,0.04684 0.179687,0.07031 0.19179,0.03717 0.579042,0.121229 0.789063,0.136719 0.453775,0.03346 0.687781,0.01999 1.121094,0.02148 0.182295,6.51e-4 0.337134,0.0025 0.501953,0.0039 0.02414,5.8e-5 0.03671,-5.3e-5 0.06641,0 0.01953,4.65e-4 0.03906,0.0014 0.05859,0.002 0.213482,0.002 0.438495,0.0034 0.658203,0.0059 0.02608,2.91e-4 0.05166,-2.89e-4 0.07813,0 0.04626,5.07e-4 0.08913,0.0015 0.136719,0.002 0.03826,-0.0059 0.07958,-0.01153 0.117187,-0.01758 -0.06277,-0.0091 -0.123059,-0.01814 -0.1875,-0.02734 -0.515326,-0.0405 -1.023622,-0.14662 -1.539062,-0.1875 -0.305836,-0.02426 -1.033117,-0.05782 -1.400391,-0.04687 z m 12.9375,0.128906 c -0.01392,0.02683 -0.03136,0.0517 -0.05078,0.07422 0.02474,0.002 0.04948,0.0039 0.07422,0.0059 -0.0102,-0.03164 -0.01251,-0.04689 -0.02344,-0.08008 z m -4.693359,0.154297 c -0.136101,-0.0021 -0.264794,-0.001 -0.38086,0.002 -0.02147,5.2e-4 -0.04296,0.0033 -0.06445,0.0039 0.0033,0.01601 -0.0038,0.03246 -0.002,0.04883 0.257529,-0.0038 0.515793,-0.0074 0.773438,-0.0039 0.985687,0.03095 1.969991,0.07693 2.951171,0.175781 0.0473,-4.61e-4 0.09896,-0.0013 0.144532,-0.002 -0.743956,-0.05934 -1.488752,-0.118484 -2.232422,-0.181641 -0.31661,-0.01213 -0.781152,-0.03663 -1.189453,-0.04297 z m 1.818359,1.052734 c 0.09809,0.01176 0.196753,0.02227 0.294922,0.0332 h 0.002 c 0.02571,-0.0063 0.0485,-0.01139 0.07617,-0.01758 -0.08406,-0.0054 -0.167911,-0.0099 -0.251953,-0.01563 -0.04039,-4.6e-5 -0.0807,5.9e-5 -0.121094,0 z m -3.617187,1.111328 c -2.03e-4,0.0052 2.34e-4,0.01036 0,0.01563 0.0013,5.1e-5 0.0026,-5.1e-5 0.0039,0 0.03345,-0.0015 0.07192,-0.0031 0.105468,-0.0039 -0.02338,-0.0024 -0.08453,-0.0091 -0.109374,-0.01172 z m 1.082031,0.792969 c 0.0022,0.02319 -6.36e-4,0.04794 -0.03516,0.119141 0.01569,0.03016 0.02699,0.05364 0.03711,0.07617 0.0092,-0.05392 0.02355,-0.132873 0.03516,-0.195313 -0.01236,-8e-5 -0.02475,1.28e-4 -0.03711,0 z" />
        <path
           id="rect3297"
           style="fill:#a40000;fill-opacity:1;fill-rule:nonzero;stroke:none;stroke-width:1.47509"
           transform="matrix(0.67792382,0,0,0.67792382,22.606716,30.094375)"
           d="M 12.349609,1 C 6.0618678,1 1,6.6205895 1,13.601562 v 63.550782 c 0,6.980974 5.0618678,12.599609 11.349609,12.599609 h 96.166011 c 6.28777,0 11.34961,-5.618635 11.34961,-12.599609 V 13.601562 C 119.86523,6.6205895 114.80339,1 108.51562,1 Z" />
        <path
           id="rect3408"
           style="fill:url(#linearGradient3426);fill-opacity:1;fill-rule:nonzero;stroke:none;stroke-width:1.47509"
           transform="matrix(0.67792382,0,0,0.67792382,22.606716,30.094375)"
           d="m 13.548828,5.4472656 c -4.2669336,0 -7.7031249,3.6982695 -7.7031249,8.2910154 v 63.277344 c 0,4.592746 3.4361913,8.289063 7.7031249,8.289063 h 93.767582 c 4.26693,0 7.70312,-3.696317 7.70312,-8.289063 V 13.738281 c 0,-4.5927459 -3.43619,-8.2910154 -7.70312,-8.2910154 z" />
        <path
           d="m 32.333318,39.18804 c -0.810423,0.100191 -1.445546,0.747081 -1.448237,1.530008 l 0.05115,39.976517 c -0.0033,0.05702 -0.0032,0.117055 2.23e-4,0.174065 -0.0093,0.0949 -0.0092,0.175886 3.47e-4,0.270764 -8.2e-5,0.0095 -5.8e-5,0.02917 4.9e-5,0.03868 0.0087,0.03837 0.0298,0.07834 0.04158,0.115983 -8.1e-5,0.0095 -8.1e-5,0.0098 2.5e-5,0.01934 0.0087,0.03838 0.0091,0.07837 0.02087,0.116011 -8.3e-5,0.0095 -5.7e-5,0.02917 4.9e-5,0.03868 0.01873,0.03878 0.04021,0.07874 0.0623,0.115951 -8e-5,0.0095 -8.1e-5,0.0098 2.5e-5,0.01934 0.02872,0.03929 0.07126,0.07924 0.103734,0.115892 -8.2e-5,0.0095 -8.2e-5,0.0098 2.4e-5,0.01934 0.01873,0.03878 0.04021,0.07875 0.0623,0.115952 -8.2e-5,0.0095 -5.7e-5,0.02917 4.9e-5,0.03868 0.03935,0.03021 0.08223,0.05048 0.124402,0.07718 -8.3e-5,0.0095 -5.7e-5,0.02917 4.9e-5,0.03868 0.02939,0.02959 0.05119,0.04989 0.08297,0.07724 0.01007,0.0096 0.03115,0.02925 0.04148,0.03862 0.02939,0.02959 0.05119,0.04989 0.08297,0.07724 0.01018,7.1e-5 0.01053,7.3e-5 0.02072,-3e-5 0.07575,0.06385 0.161798,0.123919 0.248826,0.173699 0.01019,7e-5 0.03125,4.4e-5 0.04143,-6e-5 0.03991,0.02052 0.08278,0.04046 0.124377,0.05784 0.01018,7e-5 0.01053,7.1e-5 0.02072,-2.9e-5 0.03992,0.02052 0.08279,0.04046 0.124376,0.05784 0.06051,0.01261 0.124828,0.01286 0.186479,0.01907 0.100723,0.01817 0.208212,0.03772 0.310804,0.03823 l 0.165737,-2.42e-4 15.309845,-0.06107 c 4.376235,-0.0078 7.307373,-0.08265 9.052976,-0.303342 0.01019,7.1e-5 0.03125,4.2e-5 0.04143,-6.2e-5 1.670518,-0.232037 3.440036,-0.65958 5.36408,-1.284309 3.344758,-1.045783 6.310742,-2.590914 8.860956,-4.65465 2.496912,-1.999262 4.431819,-4.366287 5.791789,-7.029031 1.359852,-2.662676 2.045357,-5.47805 2.040248,-8.396714 -0.0072,-4.062678 -1.236199,-7.866897 -3.702086,-11.289377 -2.466138,-3.422627 -5.83233,-6.043726 -9.974869,-7.779593 -4.211418,-1.785447 -9.702531,-2.598978 -16.514823,-2.586807 l -16.532201,0.02417 c -0.07107,3.95e-4 -0.138489,-0.0082 -0.207171,3.03e-4 z m 8.898154,8.225996 7.126664,-0.01042 c 3.330616,-0.0059 5.700107,0.09523 7.044164,0.279807 1.362489,0.187177 2.854705,0.582181 4.434981,1.192619 1.56625,0.596782 2.931614,1.327683 4.104845,2.237482 -8e-5,0.0095 -5.6e-5,0.02917 5e-5,0.03868 3.227673,2.470818 4.74922,5.440832 4.756204,9.373135 0.0071,4.02642 -1.463298,7.162711 -4.607379,9.792976 -0.967178,0.798314 -2.042682,1.475215 -3.22926,2.035463 -1.121501,0.522301 -2.58442,0.97246 -4.431715,1.360307 -1.742195,0.348503 -4.387131,0.54682 -7.83035,0.552979 l -7.333833,0.01072 -0.03437,-26.863756 z"
           id="path2242"
           style="font-style:normal;font-variant:normal;font-weight:normal;font-stretch:normal;font-size:64px;line-height:125%;font-family:'Gill Sans MT';text-align:start;writing-mode:lr-tb;text-anchor:start;fill:#eeeeec;fill-opacity:1;stroke:none" />
        <path
           d="m 89.367876,35.647667 a 5.9689121,5.4715028 0 1 1 -11.937824,0 5.9689121,5.4715028 0 1 1 11.937824,0 z"
           transform="matrix(1.950025,0,0,1.950025,-82.91788,-16.34322)"
           id="path2211"
           style="fill:#eeeeec;fill-opacity:1;fill-rule:nonzero;stroke:none" />
        <path
           id="rect3372"
           style="fill:none;stroke:url(#linearGradient3462);stroke-width:1.98589;stroke-linecap:round;stroke-linejoin:round;stroke-miterlimit:4;stroke-dasharray:none;stroke-opacity:1"
           transform="matrix(0.67792382,0,0,0.67792382,22.606716,30.094375)"
           d="m 12.591797,2.7832031 c -5.3691935,0 -9.6914064,4.8067742 -9.6914064,10.7773439 v 63.630859 c 0,5.97057 4.3222129,10.777344 9.6914064,10.777344 h 95.681643 c 5.36919,0 9.6914,-4.806774 9.6914,-10.777344 V 13.560547 c 0,-5.9705697 -4.32221,-10.7773439 -9.6914,-10.7773439 z" />
        <path
           id="rect3464"
           style="fill:none;stroke:#323232;stroke-width:2;stroke-linecap:round;stroke-linejoin:round;stroke-miterlimit:4;stroke-dasharray:none;stroke-opacity:1"
           transform="matrix(0.67792382,0,0,0.67792382,22.606716,30.094375)"
           d="M 12.349609,1 C 6.0618738,1 1,6.620597 1,13.601562 v 63.550782 c 0,6.980974 5.0618738,12.599609 11.349609,12.599609 h 96.166011 c 6.28792,0 11.34961,-5.618635 11.34961,-12.599609 V 13.601562 C 119.86523,6.620597 114.80354,1 108.51562,1 Z" />
        <path
           id="rect3477"
           style="fill:url(#linearGradient2232);fill-opacity:1;fill-rule:nonzero;stroke:none;stroke-width:1.47509"
           transform="matrix(0.67792382,0,0,0.67792382,22.606716,30.094375)"
           d="m 5.8457031,43.447266 v 33.277343 c 0,4.592747 3.4361913,8.291016 7.7031249,8.291016 h 93.767582 c 4.26693,0 7.70312,-3.698269 7.70312,-8.291016 V 63.447266 C 81.527303,50.564364 33.037413,43.662809 5.8457031,43.447266 Z" />
        <path
           d="m 89.367876,35.647667 a 5.9689121,5.4715028 0 1 1 -11.937824,0 5.9689121,5.4715028 0 1 1 11.937824,0 z"
           transform="matrix(0.626567,0,0,0.626567,40.72046,19.11002)"
           id="path2222"
           style="display:inline;fill:#eeeeec;fill-opacity:1;fill-rule:nonzero;stroke:none" />
      </g>
    </g>
  </g>
  <g
     inkscape:groupmode="layer"
     id="layer3"
     inkscape:label="Layer 2" />
</svg>
