<?xml version="1.0" encoding="UTF-8" standalone="no"?>
<svg
   viewBox="0 0 128 128"
   version="1.1"
   id="svg32"
   sodipodi:docname="php-original.svg"
   inkscape:version="1.1.2 (b8e25be833, 2022-02-05)"
   xmlns:inkscape="http://www.inkscape.org/namespaces/inkscape"
   xmlns:sodipodi="http://sodipodi.sourceforge.net/DTD/sodipodi-0.dtd"
   xmlns:xlink="http://www.w3.org/1999/xlink"
   xmlns="http://www.w3.org/2000/svg"
   xmlns:svg="http://www.w3.org/2000/svg">
  <sodipodi:namedview
     id="namedview34"
     pagecolor="#ffffff"
     bordercolor="#999999"
     borderopacity="1"
     inkscape:pageshadow="0"
     inkscape:pageopacity="0"
     inkscape:pagecheckerboard="0"
     showgrid="false"
     inkscape:zoom="6.4921875"
     inkscape:cx="63.922984"
     inkscape:cy="64.077016"
     inkscape:window-width="1920"
     inkscape:window-height="1017"
     inkscape:window-x="-8"
     inkscape:window-y="-8"
     inkscape:window-maximized="1"
     inkscape:current-layer="svg32" />
  <defs
     id="defs3">
    <path
       id="php-original-a"
       d="M64.026 96.076c33.676 0 60.976-14.361 60.976-32.076s-27.3-32.075-60.976-32.075S3.051 46.285 3.051 64s27.3 32.076 60.975 32.076" />
  </defs>
  <defs
     id="defs6">
    <path
       id="php-original-c"
       d="M2.998 31.924h122.004v64.1H2.998z" />
  </defs>
  <clipPath
     id="php-original-b">
    <use
       xlink:href="#php-original-a"
       overflow="visible"
       id="use8" />
  </clipPath>
  <clipPath
     id="php-original-d"
     clip-path="url(#php-original-b)">
    <use
       xlink:href="#php-original-c"
       overflow="visible"
       id="use11" />
  </clipPath>
  <path
     fill="#6181B6"
     d="M64.026 93.694c32.36 0 58.594-13.295 58.594-29.694S96.387 34.306 64.026 34.306 5.433 47.601 5.433 64s26.233 29.694 58.593 29.694z"
     id="path26"
     style="opacity:0.2" />
  <path
     fill="#fff"
     d="M75.896 73.598l2.906-14.958c.656-3.377.11-5.896-1.62-7.486-1.677-1.54-4.523-2.288-8.703-2.288h-5.033l1.44-7.412a.955.955 0 00-.935-1.135h-6.947a.954.954 0 00-.936.771l-3.086 15.881c-.28-1.787-.973-3.323-2.079-4.591-2.038-2.332-5.261-3.515-9.58-3.515H27.856a.951.951 0 00-.935.771L20.674 81.78a.953.953 0 00.935 1.134h7.002a.953.953 0 00.936-.771l1.511-7.775h5.213c2.735 0 5.032-.296 6.827-.881 1.834-.596 3.522-1.607 5.011-3.001a15.364 15.364 0 002.96-3.676l-1.248 6.424a.95.95 0 00.935 1.134h6.947a.954.954 0 00.936-.771l3.429-17.645h4.767c2.031 0 2.626.404 2.787.578.147.159.452.718.11 2.48l-2.764 14.223a.95.95 0 00.935 1.134h7.058a.951.951 0 00.935-.769zm-32.208-12.36c-.437 2.242-1.259 3.842-2.444 4.755-1.205.927-3.132 1.397-5.727 1.397h-3.104l2.244-11.548h4.012c2.948 0 4.136.63 4.612 1.158.662.734.802 2.199.407 4.238zm61.916-8.858c-2.038-2.332-5.261-3.515-9.581-3.515H82.559a.952.952 0 00-.936.771L75.375 81.78a.953.953 0 00.935 1.134h7.003a.953.953 0 00.935-.771l1.512-7.775h5.212c2.735 0 5.033-.296 6.827-.881 1.835-.596 3.522-1.607 5.011-3.001 1.241-1.141 2.264-2.421 3.037-3.806a15.404 15.404 0 001.65-4.588c.797-4.094.16-7.363-1.893-9.712zm-7.262 8.858c-.437 2.242-1.259 3.842-2.444 4.755-1.204.927-3.131 1.397-5.727 1.397h-3.104l2.245-11.548h4.012c2.948 0 4.136.63 4.612 1.158.662.734.801 2.199.406 4.238z"
     id="path28"
     style="opacity:0.2" />
  <path
     fill="#000004"
     d="M38.67 54.89c2.66 0 4.434.491 5.32 1.474.885.982 1.097 2.668.633 5.057-.484 2.488-1.416 4.264-2.798 5.328-1.382 1.063-3.485 1.595-6.308 1.595h-4.26l2.614-13.453h4.799v-.001zM21.609 81.962h7.002l1.661-8.546h5.998c2.646 0 4.823-.277 6.532-.834 1.709-.556 3.263-1.488 4.661-2.797a14.369 14.369 0 002.85-3.569c.727-1.3 1.242-2.734 1.547-4.305.741-3.811.182-6.778-1.676-8.904s-4.812-3.189-8.862-3.189H27.856l-6.247 32.144zm35.394-40.691h6.947l-1.661 8.546h6.189c3.894 0 6.58.68 8.059 2.037 1.479 1.359 1.921 3.561 1.33 6.603l-2.906 14.959h-7.058l2.763-14.223c.314-1.618.199-2.722-.347-3.311-.546-.587-1.708-.882-3.485-.882h-5.553l-3.578 18.416h-6.947l6.247-32.145zM93.324 54.89c2.66 0 4.434.491 5.319 1.474.887.982 1.097 2.668.634 5.057-.484 2.488-1.417 4.264-2.799 5.328-1.382 1.063-3.484 1.595-6.308 1.595h-4.259l2.614-13.453h4.799v-.001zm-17.06 27.072h7.002l1.661-8.546h5.997c2.646 0 4.823-.277 6.532-.834 1.71-.556 3.264-1.488 4.661-2.797a14.35 14.35 0 002.851-3.569c.726-1.3 1.242-2.734 1.547-4.305.74-3.811.182-6.778-1.676-8.904s-4.812-3.189-8.863-3.189H82.511l-6.247 32.144z"
     id="path30"
     style="opacity:0.2" />
</svg>
