<?xml version="1.0" encoding="UTF-8" standalone="no"?>
<!-- Generated by Pixelmator Pro 3.2.2 -->

<svg
   width="280"
   height="280"
   viewBox="0 0 280 280"
   version="1.1"
   id="svg9"
   sodipodi:docname="Ada_horizon_green_logo_with_slogan-edit.svg"
   inkscape:version="1.1.2 (b8e25be833, 2022-02-05)"
   xmlns:inkscape="http://www.inkscape.org/namespaces/inkscape"
   xmlns:sodipodi="http://sodipodi.sourceforge.net/DTD/sodipodi-0.dtd"
   xmlns="http://www.w3.org/2000/svg"
   xmlns:svg="http://www.w3.org/2000/svg">
  <defs
     id="defs13" />
  <sodipodi:namedview
     id="namedview11"
     pagecolor="#ffffff"
     bordercolor="#999999"
     borderopacity="1"
     inkscape:pageshadow="0"
     inkscape:pageopacity="0"
     inkscape:pagecheckerboard="0"
     showgrid="false"
     inkscape:zoom="2.1107143"
     inkscape:cx="113.23181"
     inkscape:cy="160.60914"
     inkscape:window-width="1920"
     inkscape:window-height="1017"
     inkscape:window-x="-8"
     inkscape:window-y="-8"
     inkscape:window-maximized="1"
     inkscape:current-layer="layer1"
     height="280px" />
  <path
     id="svgframe"
     fill="none"
     stroke="none"
     d="M 0.073358,-62.922928 280.07333,-62.779175 279.92996,216.4761 -0.070012,216.33237 Z" />
  <g
     inkscape:groupmode="layer"
     id="layer1"
     inkscape:label="Layer 1">
    <circle
       style="fill:#ffffff;stroke:#ffffff;stroke-width:1.70391;opacity:0.2"
       id="path117"
       cx="140.23688"
       cy="139.76312"
       r="135.62097" />
  </g>
  <g
     inkscape:groupmode="layer"
     id="layer2"
     inkscape:label="Layer 2">
    <g
       id="Associer"
       transform="translate(4.2639593,53.536379)"
       style="opacity:0.2">
      <g
         id="g10">
        <g
           id="g1">
          <path
             id="svglogo"
             fill="#005a00"
             stroke="none"
             d="m 212.68881,88.843979 c 0.002,-4.586136 4.84336,-6.272202 12.71147,-7.113571 6.53395,-0.720497 11.73867,-1.804459 15.12853,-3.975029 l -0.003,5.792907 c -0.004,6.914124 -5.84196,10.274384 -13.63441,11.038361 -3.17871,-0.296326 -6.50493,-0.574326 -9.95879,-0.828354 -2.68664,-1.023605 -4.24492,-2.761246 -4.24382,-4.914314 z m -150.669683,1.974449 33.522858,0.0172 2.74636,8.114594 C 83.858513,101.56183 69.492912,105.00417 55.633572,109.34554 Z M 78.746124,41.583839 90.466286,75.988373 66.988853,75.976318 Z m 74.537596,17.297875 c 8.83498,0.0045 15.97054,7.974838 15.96546,17.870865 -0.004,6.998543 -3.76516,13.024887 -9.1939,15.821594 -4.08755,0.134277 -8.22809,0.319992 -12.40933,0.560959 -6.04915,-2.441635 -10.34901,-8.722588 -10.34506,-16.398956 0.005,-10.138001 7.14882,-17.858994 15.98283,-17.854462 z m 102.13605,39.344314 c -0.008,-0.228408 -0.0168,-0.455009 -0.0167,-0.668594 l 0.0166,-32.347465 c 0.003,-4.94777 -1.92458,-21.243004 -27.21732,-21.25599 -16.33768,-0.0084 -27.71873,8.796669 -29.29817,20.624016 l 15.97556,0.0082 c 1.45507,-5.310371 7.9918,-7.841347 13.68008,-7.838425 7.1387,0.0037 11.37233,2.66172 11.37067,5.919914 -0.003,5.068673 -7.38494,6.273163 -17.79281,7.232888 -13.7958,1.199302 -25.53727,4.814346 -25.54446,18.815376 -7e-4,1.390564 0.13855,2.70018 0.38281,3.945374 -3.82457,-0.140122 -7.74939,-0.243409 -11.7612,-0.304413 l 0.0382,-74.4954 -15.97366,-0.0082 -0.0172,33.554131 c -4.8378,-4.589272 -11.13078,-7.248024 -18.39145,-7.251748 -16.21667,-0.0083 -29.65688,13.984681 -29.66636,32.452561 -0.004,6.878776 1.88807,13.145569 5.10302,18.295105 -4.00638,0.43634 -8.02985,0.935196 -12.06185,1.496765 L 88.919609,23.847305 68.709808,23.836929 36.431541,116.08225 c -9.415332,3.6862 -18.471998,7.8404 -27.0081,12.48506 C 50.748726,110.61025 152.64465,86.324837 267.953,101.29347 c -0.54995,-0.60984 -5.02078,-1.774397 -12.53323,-3.067442" />
        </g>
      </g>
    </g>
    <g
       id="svgsubtext"
       transform="translate(4.2639593,53.536379)"
       style="opacity:0.2">
      <path
         id="Trac"
         fill="#005a00"
         stroke="none"
         d="m 43.095203,142.81728 0.0063,-12.2407 -2.454666,-0.001 -0.0063,12.24069 z m 11.049645,-7.09392 c -0.244713,-1.46903 -1.226078,-2.44878 -3.189808,-2.44979 -0.981869,-5e-4 -1.718269,-8.8e-4 -2.454922,0.48836 l -0.737026,1.2237 7.55e-4,-1.46888 -2.209201,-0.001 -0.0048,9.30293 2.209201,0.001 0.0021,-4.16183 c 0.0014,-2.69295 0.983749,-3.67171 2.211082,-3.67107 1.227337,6.3e-4 1.718014,0.49051 1.71751,1.46976 0.245217,0.48976 0.244965,0.97938 0.244713,1.46901 l -0.0025,4.89627 2.45467,0.001 0.0028,-5.38591 c 3.77e-4,-0.73443 -0.244839,-1.22418 -0.244587,-1.7138 z m 10.312359,-5.38062 c -2.454663,-0.001 -4.419148,1.46662 -4.420277,3.66994 -0.0011,2.20332 1.471161,3.18333 3.925579,3.67422 1.963478,0.49064 2.454163,0.98052 2.453659,1.95977 -5.03e-4,0.97926 -0.737282,1.71331 -1.964615,1.71269 -1.227329,-6.3e-4 -2.20882,-0.73558 -2.453533,-2.20459 l -2.45467,-0.001 c 0.244091,2.69307 1.961724,3.91803 4.907318,3.91954 2.454674,0.001 4.664498,-1.22168 4.665757,-3.66982 10e-4,-1.95851 -1.225693,-3.18321 -3.925583,-3.67422 -1.963475,-0.49063 -2.699627,-0.98064 -2.699124,-1.9599 5.04e-4,-0.97925 0.737156,-1.46849 1.719014,-1.468 1.22734,6.4e-4 1.963363,0.73545 2.208198,1.95965 l 2.454666,0.001 c -0.244331,-2.20344 -1.716247,-3.9179 -4.416389,-3.91928 z m 9.079757,4.90094 1.963738,10e-4 8.77e-4,-1.7137 -1.963737,-0.001 0.0011,-2.20332 -2.454659,-0.001 -0.0011,2.20333 -1.472802,-7.7e-4 -8.77e-4,1.71372 1.472801,7.5e-4 -0.0023,4.40664 c -3.73e-4,0.73445 -4.96e-4,0.97927 -7.47e-4,1.46889 0.244835,1.2242 0.735382,1.95889 2.699119,1.9599 0.490937,2.4e-4 0.981873,5e-4 1.472931,-0.24406 l 7.55e-4,-1.46889 c -1.227333,-6.3e-4 -1.718147,-0.2457 -1.717765,-0.98013 1.22e-4,-0.24482 2.51e-4,-0.48963 5.03e-4,-0.97925 z m 8.346871,-1.95424 c -0.736405,-3.8e-4 -1.227463,0.24419 -1.718521,0.48876 l -0.737152,1.4685 8.85e-4,-1.7137 -2.454674,-10e-4 -0.0048,9.30293 2.454674,10e-4 0.0023,-4.40666 c 0.0013,-2.44814 0.98362,-3.42688 2.947235,-3.18107 l 10e-4,-1.95851 c -0.245468,-1.2e-4 -0.245468,-1.2e-4 -0.490936,-2.6e-4 z m 5.891197,0.003 c -2.945602,-0.002 -4.910332,1.95599 -4.911842,4.89375 -0.0014,2.69295 1.961212,4.89728 4.906814,4.89879 3.191063,0.002 4.910462,-2.20079 4.91185,-4.89375 0.0015,-2.93776 -1.715759,-4.89716 -4.906822,-4.89879 z m -0.0041,8.07884 c -1.472794,-7.5e-4 -2.208565,-1.22519 -2.207566,-3.1837 0.001,-1.95851 0.738037,-3.1822 2.210831,-3.18146 1.472809,7.7e-4 2.454048,1.22535 2.453041,3.18386 -0.001,1.95851 -0.983505,3.18207 -2.456306,3.1813 z m 15.221828,-5.62289 c 7.5e-4,-1.46889 -1.22608,-2.44878 -3.189815,-2.44979 -0.981865,-5e-4 -1.718262,-8.8e-4 -2.20945,0.4885 l -0.737023,1.22369 7.48e-4,-1.46888 -2.454658,-0.001 -0.0048,9.30292 2.454658,0.001 0.0021,-4.16184 c 0.0014,-2.69294 0.738289,-3.67183 1.965615,-3.6712 1.227335,6.4e-4 1.718025,0.49051 1.962985,1.46989 -2.5e-4,0.48964 -5e-4,0.97925 -7.5e-4,1.46889 l -0.003,4.89627 2.45467,0.001 0.003,-5.38591 c 3.8e-4,-0.73444 6.3e-4,-1.22406 -0.24458,-1.71382 z m 11.53806,-2.19741 -2.45467,-0.001 -6.2e-4,1.22407 -0.7359,-0.97963 c -0.49069,-0.48988 -1.47254,-0.49038 -2.20895,-0.49076 -2.45467,-0.001 -4.41915,1.46661 -4.42091,4.89401 -0.002,2.93776 1.47041,4.65222 4.17054,4.65361 0.98187,5e-4 1.96386,-0.24382 2.45492,-0.48837 l 0.73702,-1.2237 -1.2e-4,0.24481 c -2.5e-4,0.48963 -3.8e-4,0.73446 -6.2e-4,1.22408 -0.24623,1.46875 -1.22847,2.20268 -2.70127,2.20193 -1.22734,-6.4e-4 -1.96348,-0.49063 -2.20845,-1.47001 v 0 l -2.20919,-0.001 v 0 c 0.24433,2.20344 1.71649,3.42827 4.41664,3.42966 2.94559,0.002 4.91008,-1.46637 5.15706,-4.40401 2.5e-4,-0.48963 6.2e-4,-1.22406 10e-4,-1.9585 z m -4.91322,7.58671 c -1.4728,-7.5e-4 -2.45405,-1.22532 -2.45304,-3.18384 0.001,-1.9585 0.98337,-2.93726 2.45618,-2.9365 1.22733,6.3e-4 2.45428,0.73571 2.45328,2.6942 l -1.2e-4,0.24483 c -10e-4,2.44814 -1.22898,3.18195 -2.4563,3.18131 z m 20.62359,-8.5579 0.001,-1.95851 -10.80052,-0.006 -0.001,1.95851 4.17293,0.002 -0.005,10.28218 2.45467,0.001 0.005,-10.28218 z m 9.81816,0.9843 -2.70014,-0.001 -2.21297,7.3433 -2.45089,-7.34569 -2.70014,-0.001 3.92246,9.79457 -0.24561,0.24469 c -0.24595,0.97914 -0.98248,1.22356 -1.71889,1.22319 -0.24546,-1.4e-4 -0.49093,-2.6e-4 -0.7364,-3.8e-4 l -8.8e-4,1.7137 c 0.24546,1.2e-4 0.7364,3.8e-4 1.22734,6.2e-4 1.71826,8.9e-4 2.7005,-0.73304 3.68374,-3.42549 z m 6.62773,-0.24141 c -0.98188,-5e-4 -1.96387,0.24381 -2.45493,0.48836 l -0.73703,1.22369 7.6e-4,-1.46888 -2.45466,-0.001 -0.007,12.73031 2.45465,10e-4 0.002,-4.65148 0.7359,0.97965 c 0.4908,0.24506 1.47255,0.49039 2.20894,0.49075 2.45469,0.001 4.41928,-1.71142 4.42104,-5.13882 0.001,-2.69295 -1.4704,-4.65222 -4.17053,-4.6536 z m -0.74056,8.07848 c -1.22732,-6.3e-4 -2.45428,-0.7357 -2.45315,-2.93903 l 2.4e-4,-0.48962 c 0.001,-2.20332 1.22885,-2.93713 2.45618,-2.93651 1.47281,7.6e-4 2.45405,1.22533 2.45305,3.18384 -0.001,2.20332 -0.98351,3.18207 -2.45632,3.18132 z m 7.86084,-11.50221 c -0.98186,-5.1e-4 -1.47317,0.73367 -1.47356,1.46812 -3.6e-4,0.73444 0.49032,1.22432 1.47219,1.22482 0.73639,3.9e-4 1.22758,-0.48899 1.22796,-1.22343 3.7e-4,-0.73445 -0.49018,-1.46915 -1.22659,-1.46951 z m 1.22067,12.97575 0.005,-9.30292 -2.45467,-10e-4 -0.005,9.30293 z m 10.80417,-7.09406 c 7.7e-4,-1.46888 -1.22606,-2.44876 -3.18979,-2.44978 -0.98187,-4.9e-4 -1.71827,-8.7e-4 -2.20945,0.4885 l -0.73703,1.22369 7.4e-4,-1.46887 -2.45465,-0.001 -0.005,9.30293 2.45465,10e-4 0.002,-4.16184 c 0.001,-2.69295 0.7383,-3.67183 1.96563,-3.6712 1.22734,6.4e-4 1.71801,0.49052 1.96298,1.46991 -2.5e-4,0.48962 -5e-4,0.97925 -7.5e-4,1.46887 l -0.003,4.89627 2.45465,0.001 0.003,-5.38591 c 3.7e-4,-0.73444 6.3e-4,-1.22406 -0.2446,-1.71383 z m 11.53807,-2.1974 -2.45466,-10e-4 -6.3e-4,1.22406 -0.7359,-0.97963 c -0.49068,-0.48988 -1.47253,-0.49039 -2.20894,-0.49077 -2.45466,-0.001 -4.41916,1.46663 -4.42093,4.89402 -10e-4,2.93777 1.7159,4.65234 4.17057,4.65361 0.98187,5e-4 1.96385,-0.24381 2.45491,-0.48838 l 0.73703,-1.22369 -1.4e-4,0.24481 c -2.5e-4,0.48964 -3.7e-4,0.73445 -6.3e-4,1.22408 -0.24621,1.46876 -0.983,2.20282 -2.70124,2.20193 -1.22735,-6.2e-4 -1.96349,-0.49063 -1.96299,-1.46988 v 0 l -2.45468,-0.001 v 0 c 0.24434,2.20344 1.71652,3.42826 4.41666,3.42965 2.94559,0.002 4.91008,-1.46635 5.15706,-4.404 2.4e-4,-0.48963 6.2e-4,-1.22406 0.001,-1.9585 z M 172.457,141.17 c -1.47279,-7.7e-4 -2.45404,-1.22533 -2.45303,-3.18384 10e-4,-1.95851 0.98338,-2.93727 2.45617,-2.93651 1.22733,6.3e-4 2.45429,0.7357 2.45328,2.69422 l -1.2e-4,0.24481 c -0.001,2.44813 -1.22897,3.18194 -2.4563,3.18132 z m 27.00673,-10.51314 -2.70013,-0.001 -1.96914,10.52599 -2.20391,-10.28331 -3.43654,-0.002 -2.21434,10.03623 -1.95847,-10.28319 -2.70013,-10e-4 3.18478,12.24233 3.19107,0.002 2.21434,-10.03624 1.95859,10.03838 3.43654,0.002 z m 9.07851,7.34908 c 0.001,-2.44814 -1.47043,-4.65223 -4.41604,-4.65374 -2.94558,-0.002 -4.66485,1.95612 -4.66636,4.89389 -0.002,3.18257 1.96123,4.89728 4.41589,4.89855 2.20918,10e-4 4.17356,-1.22193 4.6655,-3.18019 l -2.45468,-0.001 c -0.24597,0.97912 -0.98262,1.46836 -1.9645,1.46786 -1.22731,-6.3e-4 -2.20892,-0.49075 -2.20779,-2.69408 l 6.62759,0.003 c 1.3e-4,-0.24482 2.5e-4,-0.48964 3.9e-4,-0.73445 z m -4.4169,-2.94004 c 1.22732,6.4e-4 1.71788,0.73534 1.9626,2.20433 l -4.17293,-0.002 c 0.24621,-1.46875 0.983,-2.20282 2.21033,-2.2022 z m 19.63859,-2.43805 0.001,-1.95851 -10.80054,-0.006 -0.001,1.95852 4.17293,0.002 -0.005,10.28218 2.45467,0.001 0.005,-10.28216 z m 4.90895,0.73696 c -0.49093,-2.5e-4 -1.22746,0.24418 -1.7185,0.48875 l -0.73717,1.46851 8.8e-4,-1.7137 -2.45466,-0.001 -0.005,9.30293 2.45467,0.001 0.002,-4.40664 c 0.001,-2.44814 0.98361,-3.42688 3.1927,-3.18094 l 9.9e-4,-1.95851 c -0.24545,-1.2e-4 -0.49092,-2.6e-4 -0.73639,-3.8e-4 z m 10.55495,0.25024 -2.45468,-0.001 -0.002,4.65146 c -0.001,2.20333 -0.73804,3.18221 -1.96538,3.18158 -1.22733,-6.4e-4 -1.71788,-0.73532 -1.96285,-1.7147 1.4e-4,-0.24482 5.1e-4,-0.97927 6.3e-4,-1.22408 l 0.003,-4.89627 -2.45467,-0.001 -0.003,5.38591 c -3.8e-4,0.73444 -6.3e-4,1.22408 -8.9e-4,1.7137 0.24472,1.46901 1.47155,2.44889 3.43529,2.44991 0.73641,3.6e-4 1.47292,-0.24407 2.20957,-0.73332 l 0.7369,-0.97887 -7.6e-4,1.46889 2.45468,0.001 z m 5.64586,-0.24193 c -2.2092,-0.001 -3.68251,0.97737 -3.68338,2.69107 -8.9e-4,1.7137 0.9806,2.44864 2.94409,2.93927 1.47255,0.49039 2.2088,0.73558 2.20842,1.47004 -3.8e-4,0.73443 -0.73688,0.97886 -1.47328,0.97848 -0.73639,-3.8e-4 -1.47267,-0.24556 -1.71752,-1.46976 l -2.45466,-0.001 c 0.24434,2.20346 1.96209,3.18359 4.17131,3.18472 2.20916,0.001 3.92795,-0.97723 3.92881,-2.69093 8.9e-4,-1.7137 -1.22595,-2.69359 -3.1894,-3.18422 -1.47267,-0.24556 -1.96337,-0.73545 -1.96298,-1.46988 2.5e-4,-0.48964 0.24597,-0.97914 0.98237,-0.97876 0.73641,3.8e-4 1.22708,0.49026 1.47205,1.46963 l 2.45463,0.001 c -0.24458,-1.71382 -1.47128,-2.93852 -3.68046,-2.93967 z m 8.34485,1.9628 1.96374,0.001 8.7e-4,-1.7137 -1.96373,-0.001 10e-4,-2.20332 -2.45467,-0.001 -0.001,2.20332 -1.47279,-7.6e-4 -8.9e-4,1.7137 1.47281,7.6e-4 -0.002,4.40665 c -3.7e-4,0.73443 -4.9e-4,0.97926 -7.5e-4,1.46887 -6.3e-4,1.22407 0.7354,1.95889 2.45366,1.95978 0.7364,3.8e-4 1.22734,6.2e-4 1.7184,-0.24393 l 7.6e-4,-1.46889 c -1.47281,-7.6e-4 -1.71816,-0.24569 -1.71777,-0.98013 1.2e-4,-0.24481 2.6e-4,-0.48962 5e-4,-0.97926 z" />
    </g>
  </g>
</svg>
