<?xml version="1.0" encoding="UTF-8" standalone="no"?>
<svg
   viewBox="0 0 128 128"
   version="1.1"
   id="svg4"
   sodipodi:docname="crystal-original.svg"
   inkscape:version="1.1.2 (b8e25be833, 2022-02-05)"
   xmlns:inkscape="http://www.inkscape.org/namespaces/inkscape"
   xmlns:sodipodi="http://sodipodi.sourceforge.net/DTD/sodipodi-0.dtd"
   xmlns="http://www.w3.org/2000/svg"
   xmlns:svg="http://www.w3.org/2000/svg">
  <defs
     id="defs8" />
  <sodipodi:namedview
     id="namedview6"
     pagecolor="#ffffff"
     bordercolor="#999999"
     borderopacity="1"
     inkscape:pageshadow="0"
     inkscape:pageopacity="0"
     inkscape:pagecheckerboard="0"
     showgrid="false"
     inkscape:zoom="3.2460937"
     inkscape:cx="105.51143"
     inkscape:cy="79.172082"
     inkscape:window-width="1920"
     inkscape:window-height="1017"
     inkscape:window-x="-8"
     inkscape:window-y="-8"
     inkscape:window-maximized="1"
     inkscape:current-layer="svg4" />
  <circle
     style="fill:#f2f2f2;stroke:#f2f2f2;stroke-width:0.885283"
     id="path322"
     cx="63.517052"
     cy="63.952702"
     r="72.894798" />
  <path
     d="M126.887 81.203L80.895 126.86c-.184.184-.461.274-.645.184l-62.828-16.742c-.277-.094-.461-.278-.461-.461L.035 47.437c-.09-.273 0-.457.184-.64L46.215 1.14c.183-.184.46-.274.644-.184l62.825 16.742c.277.094.46.278.46.461l16.836 62.403c.184.273.09.457-.093.64zM65.254 31.516L3.53 47.895c-.094 0-.183.183-.094.277l45.168 44.832c.09.094.278.094.278-.09L65.437 31.61c.094 0-.09-.183-.183-.093zm0 0"
     fill-rule="evenodd"
     id="path2" />
</svg>
