<?xml version="1.0" encoding="UTF-8" standalone="no"?>
<svg
   version="1.1"
   id="lua-original-wordmark-Ebene_1"
   viewBox="0 0 128 128"
   xml:space="preserve"
   sodipodi:docname="lua-original-wordmark.svg"
   inkscape:version="1.1.2 (b8e25be833, 2022-02-05)"
   xmlns:inkscape="http://www.inkscape.org/namespaces/inkscape"
   xmlns:sodipodi="http://sodipodi.sourceforge.net/DTD/sodipodi-0.dtd"
   xmlns="http://www.w3.org/2000/svg"
   xmlns:svg="http://www.w3.org/2000/svg"><defs
     id="defs17" /><sodipodi:namedview
     id="namedview15"
     pagecolor="#ffffff"
     bordercolor="#999999"
     borderopacity="1"
     inkscape:pageshadow="0"
     inkscape:pageopacity="0"
     inkscape:pagecheckerboard="0"
     showgrid="false"
     inkscape:zoom="6.4921875"
     inkscape:cx="64"
     inkscape:cy="64.077016"
     inkscape:window-width="1920"
     inkscape:window-height="1017"
     inkscape:window-x="-8"
     inkscape:window-y="-8"
     inkscape:window-maximized="1"
     inkscape:current-layer="lua-original-wordmark-Ebene_1" /><style
     id="style2" /><path
     fill="navy"
     d="M127.3 15.1c0-7.9-6.4-14.3-14.3-14.3S98.6 7.1 98.6 15.1 105 29.4 113 29.4s14.3-6.4 14.3-14.3"
     id="path4" /><g
     fill="navy"
     id="g10"><path
       d="M64 15.1c-27 0-49 21.9-49 49s21.9 49 49 49 49-21.9 49-49-22-49-49-49zM50.7 88.5h-20V56.4h4.1v28.5h15.9v3.6zm22.3 0h-3.3v-3.2c-2.2 3-4.3 4.2-7.7 4.2-4.5 0-7.4-2.5-7.4-6.3V65.4h3.7v16.3c0 2.8 1.9 4.5 4.8 4.5 3.8 0 6.3-3.1 6.3-7.8v-13H73v23.1zm-3-44.8c0-7.9 6.4-14.3 14.3-14.3s14.3 6.4 14.3 14.3S92.2 58 84.3 58 70 51.6 70 43.7zm29.8 45.4c-1.2.3-1.8.4-2.5.4-2.4 0-3.5-1.1-3.8-3.4-2.6 2.4-4.9 3.4-7.8 3.4-4.7 0-7.6-2.6-7.6-6.8 0-3 1.4-5.1 4.1-6.2 1.4-.6 2.2-.7 7.4-1.4 2.9-.4 3.8-1 3.8-2.6v-1c0-2.2-1.9-3.4-5.2-3.4-3.4 0-5.1 1.3-5.4 4.1h-3.7c.1-2.3.5-3.6 1.6-4.8 1.5-1.7 4.3-2.7 7.7-2.7 5.7 0 8.7 2.2 8.7 6.3v13.6c0 1.1.7 1.8 2 1.8.2 0 .4 0 .8-.1l-.1 2.8z"
       id="path6" /><path
       d="M81.9 82.6c0 2.3 1.7 3.7 4.5 3.7 2.2 0 4-.7 5.5-2.1 1.1-1 1.5-1.8 1.5-3v-4.1c-1.2.6-2 .7-5.9 1.3-3.9.5-5.6 1.8-5.6 4.2z"
       id="path8" /></g><path
     fill="gray"
     d="M66.3 128l-.1-1.5c1.8-.1 3.6-.2 5.4-.4l.2 1.5c-1.8.2-3.7.3-5.5.4zm-5.6 0c-1.9-.1-3.7-.3-5.6-.5l.2-1.5c1.8.2 3.6.4 5.4.5v1.5zm16.6-1.4l-.3-1.4c1.8-.4 3.5-.8 5.3-1.4l.4 1.4c-1.7.6-3.5 1.1-5.4 1.4zm-27.7-.2c-1.8-.4-3.6-.9-5.4-1.5l.5-1.4c1.7.6 3.5 1 5.3 1.5l-.4 1.4zm38.4-3l-.6-1.4c1.7-.7 3.3-1.4 5-2.3l.7 1.3c-1.7.9-3.4 1.7-5.1 2.4zm-49-.4c-1.7-.7-3.4-1.5-5-2.4l.7-1.3c1.6.9 3.3 1.6 4.9 2.4L39 123zm59-4.7l-.8-1.2c1.5-1 3-2 4.5-3.1l.9 1.2c-1.5 1.1-3.1 2.1-4.6 3.1zm-68.8-.6c-1.6-1-3.1-2.1-4.5-3.2l.9-1.2c1.4 1.1 2.9 2.2 4.4 3.2l-.8 1.2zm77.7-6.1l-1-1.1c1.3-1.2 2.7-2.5 3.9-3.8l1.1 1c-1.3 1.3-2.7 2.6-4 3.9zm-86.5-.7c-1.4-1.3-2.7-2.6-3.9-4l1.1-1c1.2 1.3 2.5 2.7 3.8 3.9l-1 1.1zm94.1-7.5l-1.2-.9c1.1-1.4 2.2-2.9 3.2-4.4l1.2.8c-1 1.5-2.1 3.1-3.2 4.5zm-101.6-.8c-1.1-1.5-2.2-3-3.2-4.6l1.2-.8c1 1.5 2 3 3.1 4.5l-1.1.9zm107.7-8.5l-1.3-.7c.9-1.6 1.6-3.3 2.4-4.9l1.3.5-2.4 5.1zM7 93.1c-.8-1.7-1.6-3.4-2.3-5.1l1.3-.5c.7 1.7 1.4 3.3 2.3 5l-1.3.6zm117.9-9.3l-1.4-.5c.6-1.7 1-3.5 1.5-5.3l1.4.3c-.4 1.9-.9 3.7-1.5 5.5zm-122.1-1c-.5-1.8-1-3.6-1.4-5.4l1.4-.3c.4 1.8.8 3.5 1.4 5.3l-1.4.4zm124.6-9.9l-1.5-.2c.2-1.8.4-3.6.5-5.4l1.5.1c0 1.8-.2 3.7-.5 5.5zM.5 71.9C.2 70 .1 68.2 0 66.3l1.5-.1c.1 1.8.2 3.6.4 5.4l-1.4.3zm126-10.1c-.1-1.8-.2-3.6-.4-5.4l1.5-.2c.2 1.8.4 3.7.4 5.6h-1.5zm-125-1L0 60.7c.1-1.9.3-3.7.5-5.6l1.5.3c-.2 1.8-.4 3.6-.5 5.4zM125.2 51c-.4-1.8-.8-3.6-1.4-5.3l1.4-.4c.5 1.8 1 3.6 1.4 5.4l-1.4.3zM3 50l-1.4-.3c.4-1.8.9-3.6 1.5-5.4l1.4.5C3.9 46.5 3.4 48.2 3 50zm119-9.4c-.7-1.7-1.4-3.4-2.3-5l1.3-.7c.8 1.7 1.6 3.4 2.3 5.1l-1.3.6zm-115.6-1L5 39.1c.7-1.7 1.5-3.4 2.4-5l1.3.7c-.8 1.5-1.6 3.2-2.3 4.8zm5.1-9.6l-1.2-.8c1-1.6 2.1-3.1 3.2-4.5l1.2.9c-1.2 1.4-2.2 2.9-3.2 4.4zm6.7-8.6l-1.1-1c1.3-1.4 2.6-2.7 4-3.9l1 1.1c-1.4 1.2-2.7 2.5-3.9 3.8zm8.1-7.3l-.9-1.2c1.5-1.1 3-2.2 4.6-3.2l.8 1.2c-1.6 1.1-3.1 2.1-4.5 3.2zm67-5.4c-1.6-.8-3.3-1.6-4.9-2.3l.5-1.4c1.7.7 3.4 1.5 5 2.4l-.6 1.3zm-57.8-.4L34.8 7c1.7-.8 3.4-1.6 5.1-2.3l.6 1.3c-1.7.7-3.4 1.5-5 2.3zm47.7-3.8c-1.7-.6-3.5-1-5.3-1.4l.3-1.4c1.8.4 3.6.9 5.4 1.5l-.4 1.3zm-37.6-.3l-.4-1.4c1.8-.5 3.6-1 5.4-1.4l.3 1.4c-1.8.4-3.6.9-5.3 1.4zm27-2.2c-1.8-.2-3.6-.4-5.4-.5l.1-1.5c1.9.1 3.7.3 5.6.5L72.6 2zm-16.3-.1L56.1.4c1.8-.2 3.7-.4 5.6-.4l.1 1.5c-1.9 0-3.7.2-5.5.4z"
     id="path12" /><path
     style="fill:#ffffff;stroke:#f2f2f2;stroke-width:0.154031"
     d="M 30.806258,72.471721 V 56.452467 h 1.925391 1.925391 v 14.247894 14.247894 h 8.009627 8.009627 v 1.77136 1.77136 h -9.935018 -9.935018 z"
     id="path93" /><path
     style="fill:#ffffff;stroke:#f2f2f2;stroke-width:0.154031"
     d="m 59.827436,89.196672 c -2.129074,-0.48611 -3.754046,-1.716788 -4.592656,-3.47826 l -0.476657,-1.001204 -0.04404,-9.588447 -0.04403,-9.588448 h 1.776886 1.776887 v 8.443764 c 0,9.225393 0.01254,9.373594 0.896039,10.5924 0.89325,1.232255 2.983446,1.907026 4.939379,1.594563 2.028862,-0.324111 3.604943,-1.527969 4.497503,-3.435326 0.851977,-1.820634 0.905756,-2.421243 0.908688,-10.14847 l 0.0027,-7.046931 h 1.694344 1.694344 V 77.015644 88.490975 H 71.31651 69.776197 l -5.23e-4,-1.655837 -5.24e-4,-1.655836 -1.074643,1.176742 c -1.222308,1.338436 -2.376843,2.164485 -3.660959,2.619348 -1.156872,0.409791 -3.880072,0.525406 -5.212079,0.22128 z"
     id="path132" /><path
     style="fill:#ffffff;stroke:#f2f2f2;stroke-width:0.154031"
     d="m 83.517093,89.180245 c -3.588804,-0.779288 -5.384197,-3.147494 -5.244627,-6.917904 0.05146,-1.390168 0.114279,-1.68203 0.554498,-2.576241 0.865802,-1.758694 2.56705,-3.005509 4.889041,-3.58309 0.508303,-0.126438 2.387341,-0.440317 4.17564,-0.69751 4.277948,-0.615253 4.92333,-0.85043 5.395558,-1.966136 0.25248,-0.596519 0.271903,-2.044554 0.03881,-2.893034 -0.233334,-0.849345 -1.240807,-1.787339 -2.280324,-2.123066 -1.153818,-0.372641 -3.132193,-0.497039 -4.398285,-0.276559 -2.229012,0.388166 -3.28783,1.311101 -3.789424,3.303112 l -0.179747,0.713841 h -1.770822 -1.770822 l 0.1031,-0.88568 c 0.334577,-2.874189 1.780856,-4.715934 4.503149,-5.734475 2.945317,-1.101984 7.756646,-0.949924 10.25388,0.32407 1.013632,0.517116 2.036137,1.587378 2.522444,2.640259 l 0.443537,0.960279 0.07702,7.932611 c 0.06025,6.20611 0.12162,8.010879 0.281953,8.292222 0.258121,0.452934 1.063367,0.795624 1.869538,0.795624 h 0.621072 l -0.0024,1.116727 c -0.0012,0.6142 -0.05328,1.196533 -0.115524,1.294077 -0.178594,0.279888 -1.958141,0.565869 -2.957373,0.475262 -1.637861,-0.148517 -2.794905,-1.173768 -3.020207,-2.676192 -0.05542,-0.369583 -0.128607,-0.671968 -0.162629,-0.671968 -0.03402,0 -0.580073,0.411806 -1.213445,0.915123 -2.69263,2.139735 -5.730146,2.910383 -8.823647,2.238648 z m 5.241045,-3.131499 c 2.060904,-0.571472 4.202654,-2.342123 4.562742,-3.77216 0.205585,-0.816456 0.240036,-5.183927 0.04089,-5.183927 -0.07437,0 -0.383827,0.103875 -0.68768,0.230833 -0.303852,0.126957 -1.646613,0.407158 -2.983913,0.622668 -3.629285,0.584869 -5.107752,0.945235 -6.021098,1.4676 -1.53065,0.875415 -2.179238,2.572664 -1.66245,4.350355 0.298531,1.026907 1.287275,1.991897 2.388518,2.331133 1.031465,0.31774 3.130082,0.295373 4.36299,-0.0465 z"
     id="path171" /><path
     style="fill:#ffffff;stroke:#f2f2f2;stroke-width:0.154031"
     d="m 82.868833,57.835226 c -1.706567,-0.169267 -2.97398,-0.540558 -4.703853,-1.378 -7.606372,-3.682288 -10.315521,-12.738486 -6.014635,-20.105842 0.878318,-1.504546 3.349641,-3.946731 4.942314,-4.884042 2.372906,-1.396488 5.144283,-2.068828 7.932612,-1.924462 6.107752,0.31623 11.318995,4.472294 12.941645,10.321206 1.022109,3.684228 0.550656,7.498497 -1.345933,10.889223 -0.987393,1.76526 -3.451037,4.25162 -5.173214,5.220909 -2.677588,1.507019 -5.649047,2.151611 -8.578936,1.861008 z"
     id="path210" /></svg>
