<?xml version="1.0" encoding="UTF-8" standalone="no"?>
<svg
   viewBox="0 0 128 128"
   version="1.1"
   id="svg8"
   sodipodi:docname="bash-original-fundo.svg"
   inkscape:version="1.1.2 (b8e25be833, 2022-02-05)"
   xmlns:inkscape="http://www.inkscape.org/namespaces/inkscape"
   xmlns:sodipodi="http://sodipodi.sourceforge.net/DTD/sodipodi-0.dtd"
   xmlns="http://www.w3.org/2000/svg"
   xmlns:svg="http://www.w3.org/2000/svg">
  <defs
     id="defs12" />
  <sodipodi:namedview
     id="namedview10"
     pagecolor="#ffffff"
     bordercolor="#999999"
     borderopacity="1"
     inkscape:pageshadow="0"
     inkscape:pageopacity="0"
     inkscape:pagecheckerboard="0"
     showgrid="false"
     inkscape:zoom="4.5906699"
     inkscape:cx="100.63891"
     inkscape:cy="76.677262"
     inkscape:window-width="1920"
     inkscape:window-height="1017"
     inkscape:window-x="-8"
     inkscape:window-y="-8"
     inkscape:window-maximized="1"
     inkscape:current-layer="layer1" />
  <g
     inkscape:groupmode="layer"
     id="layer1"
     inkscape:label="Layer 1">
    <circle
       style="fill:#ffffff;stroke:#ffffff;opacity:0.2"
       id="path115"
       cx="64.050591"
       cy="64.103439"
       r="61.150421" />
    <path
       style="fill:#ffffff;stroke:#ffffff;stroke-width:0.217833"
       d=""
       id="path421" />
  </g>
  <g
     inkscape:groupmode="layer"
     id="layer2"
     inkscape:label="Layer 2">
    <path
       fill="none"
       d="M4.24 4.24h119.53v119.53H4.24z"
       id="path2"
       style="opacity:0.2" />
    <path
       fill="#293138"
       d="M109.01 28.64L71.28 6.24c-2.25-1.33-4.77-2-7.28-2s-5.03.67-7.28 2.01l-37.74 22.4c-4.5 2.67-7.28 7.61-7.28 12.96v44.8c0 5.35 2.77 10.29 7.28 12.96l37.73 22.4c2.25 1.34 4.76 2 7.28 2 2.51 0 5.03-.67 7.28-2l37.74-22.4c4.5-2.67 7.28-7.62 7.28-12.96V41.6c0-5.34-2.77-10.29-7.28-12.96zM79.79 98.59l.06 3.22c0 .39-.25.83-.55.99l-1.91 1.1c-.3.15-.56-.03-.56-.42l-.03-3.17c-1.63.68-3.29.84-4.34.42-.2-.08-.29-.37-.21-.71l.69-2.91c.06-.23.18-.46.34-.6.06-.06.12-.1.18-.13.11-.06.22-.07.31-.03 1.14.38 2.59.2 3.99-.5 1.78-.9 2.97-2.72 2.95-4.52-.02-1.64-.9-2.31-3.05-2.33-2.74.01-5.3-.53-5.34-4.57-.03-3.32 1.69-6.78 4.43-8.96l-.03-3.25c0-.4.24-.84.55-1l1.85-1.18c.3-.15.56.04.56.43l.03 3.25c1.36-.54 2.54-.69 3.61-.44.23.06.34.38.24.75l-.72 2.88c-.06.22-.18.44-.33.58a.77.77 0 01-.19.14c-.1.05-.19.06-.28.05-.49-.11-1.65-.36-3.48.56-1.92.97-2.59 2.64-2.58 3.88.02 1.48.77 1.93 3.39 1.97 3.49.06 4.99 1.58 5.03 5.09.05 3.44-1.79 7.15-4.61 9.41zm26.34-60.5l-35.7 22.05c-4.45 2.6-7.73 5.52-7.74 10.89v43.99c0 3.21 1.3 5.29 3.29 5.9-.65.11-1.32.19-1.98.19-2.09 0-4.15-.57-5.96-1.64l-37.73-22.4c-3.69-2.19-5.98-6.28-5.98-10.67V41.6c0-4.39 2.29-8.48 5.98-10.67l37.74-22.4c1.81-1.07 3.87-1.64 5.96-1.64s4.15.57 5.96 1.64l37.74 22.4c3.11 1.85 5.21 5.04 5.8 8.63-1.27-2.67-4.09-3.39-7.38-1.47z"
       id="path4"
       style="opacity:0.2" />
    <path
       fill="#4FA847"
       d="M99.12 90.73l-9.4 5.62c-.25.15-.43.31-.43.61v2.46c0 .3.2.43.45.28l9.54-5.8c.25-.15.29-.42.29-.72v-2.17c0-.3-.2-.42-.45-.28z"
       id="path6"
       style="opacity:0.2" />
    <path
       style="fill:#ffffff;stroke:#cccccc;stroke-width:0.154031;opacity:0.2"
       d="m 61.59177,120.76158 c -0.519714,-0.11303 -1.360531,-0.37337 -1.868483,-0.57854 C 58.945215,119.86876 23.419145,98.904988 20.178099,96.847603 17.588022,95.203446 15.645624,92.537825 14.762191,89.415162 14.492614,88.462289 14.478941,87.235433 14.478941,64 c 0,-23.235433 0.01367,-24.462289 0.28325,-25.415162 0.372765,-1.31761 1.146233,-2.974947 1.920476,-4.11507 1.48198,-2.182312 1.291934,-2.058723 22.574289,-14.680257 11.887137,-7.049683 20.112993,-11.8350805 20.749395,-12.0709725 2.95322,-1.0946554 6.664103,-0.8698262 9.326457,0.565057 0.349171,0.1881862 9.289499,5.4713985 19.867398,11.7404715 l 19.232544,11.398316 1.47989,1.463297 c 1.31021,1.295525 1.5712,1.648729 2.27639,3.080626 0.43808,0.88953 0.84189,1.859927 0.89736,2.156438 l 0.10084,0.539109 -0.65876,-0.592584 c -0.77542,-0.697528 -1.36949,-0.969897 -2.41913,-1.109138 -0.888,-0.117797 -2.31903,0.197855 -3.42415,0.755291 -0.679,0.342495 -36.775279,22.59384 -38.218283,23.559446 -2.353391,1.574802 -3.926806,3.266484 -4.853969,5.218829 -1.051753,2.214693 -1.009534,1.028102 -0.963608,27.082014 0.04004,22.711879 0.05115,23.513519 0.33624,24.258229 0.162161,0.42358 0.448527,1.01568 0.636371,1.31578 0.363298,0.58039 1.36759,1.53379 1.61567,1.53379 0.08177,0 0.148671,0.0693 0.148671,0.15404 0,0.22321 -2.664073,0.16988 -3.794512,-0.076 z"
       id="path88" />
    <path
       style="fill:#ffffff;stroke:#cccccc;stroke-width:0.154031;opacity:0.2"
       d="m 77.041316,103.79142 c -0.05648,-0.0565 -0.102688,-0.88825 -0.102688,-1.84838 0,-0.96013 -0.01733,-1.74479 -0.03851,-1.7437 -0.02118,10e-4 -0.477896,0.13972 -1.014926,0.30806 -1.153866,0.3617 -2.904323,0.41006 -3.338957,0.0922 -0.28564,-0.20886 -0.282959,-0.25392 0.11553,-1.941757 0.509723,-2.158976 0.634265,-2.3172 1.663707,-2.113654 1.56202,0.308849 3.931748,-0.549736 5.062342,-1.834159 0.976729,-1.109623 1.320647,-1.952579 1.322764,-3.242153 0.0031,-1.901178 -0.582225,-2.352761 -3.287501,-2.536239 -0.961951,-0.06524 -2.096646,-0.23409 -2.521544,-0.375219 -1.014036,-0.336808 -1.85489,-1.186616 -2.198891,-2.222304 -0.3662,-1.102525 -0.255224,-3.839989 0.208002,-5.130852 0.720684,-2.008313 1.916436,-3.881668 3.242114,-5.079338 l 0.631837,-0.570827 v -1.759163 c 0,-0.967539 0.04494,-1.876281 0.09987,-2.019426 0.117,-0.304896 2.371376,-1.78135 2.550697,-1.670523 0.0671,0.04147 0.121994,0.856865 0.121994,1.811994 0,0.955128 0.03722,1.773817 0.08271,1.819307 0.04549,0.04549 0.374733,-0.02046 0.731649,-0.146564 0.946452,-0.334386 2.583884,-0.4248 2.931843,-0.161887 0.269662,0.203752 0.2648,0.274185 -0.125866,1.823333 -0.573783,2.275282 -0.599179,2.304534 -2.000779,2.304534 -1.398702,0 -2.538168,0.390075 -3.606668,1.234676 -1.260459,0.996336 -1.944209,2.821456 -1.528278,4.079404 0.290867,0.8797 0.887236,1.126346 3.146696,1.301407 2.886035,0.223606 3.764126,0.667297 4.573292,2.310839 0.46859,0.951779 0.493356,1.09117 0.493356,2.776748 0,1.431775 -0.06976,1.996822 -0.361051,2.924471 -0.678324,2.160191 -1.836256,4.093312 -3.32161,5.545292 l -0.861262,0.841911 v 1.868269 c 0,2.12555 0.07667,1.97855 -1.510057,2.89534 -1.079587,0.62376 -1.0185,0.59962 -1.159818,0.45831 z"
       id="path46" />
  </g>
</svg>
